<svg width="67" height="67" viewBox="0 0 67 67" fill="none" xmlns="http://www.w3.org/2000/svg">
<g clip-path="url(#clip0_651_120)">
<path d="M39.5459 54.8692L33.4717 66.9551L27.3936 54.8702L33.4697 51.8028L39.5459 54.8692Z" fill="currentColor"/>
<path d="M21.6162 45.337L23.6475 53.0948L12.083 54.8692L13.8574 43.3057L21.6162 45.337Z" fill="currentColor"/>
<path d="M54.8594 54.8702L43.292 53.0967L45.3242 45.337L53.082 43.3048L54.8594 54.8702Z" fill="currentColor"/>
<path d="M42.0518 44.3497L40.3125 51.6505L33.4707 48.212L33.4697 48.2091L26.626 51.6495L24.8877 44.3507L33.4707 36.4825L42.0518 44.3497Z" fill="currentColor"/>
<path d="M30.4707 33.4825L22.6016 42.0645L15.3037 40.3262L18.7432 33.4825L15.3037 26.6387L22.6016 24.9005L30.4707 33.4825Z" fill="currentColor"/>
<path d="M51.6367 26.6387L48.1963 33.4825L51.6367 40.3262L44.3369 42.0635L36.4707 33.4825L44.3379 24.9014L51.6367 26.6387Z" fill="currentColor"/>
<path d="M15.3037 33.4825L12.082 39.5587L0 33.4825L12.082 27.4063L15.3037 33.4825Z" fill="currentColor"/>
<path d="M66.9443 33.4825L54.8584 39.5587L51.79 33.4825L54.8584 27.4063L66.9443 33.4825Z" fill="currentColor"/>
<path d="M42.0527 22.6143L33.4697 30.4766L24.8877 22.6143L26.626 15.3155L33.4648 18.753L40.3125 15.3145L42.0527 22.6143Z" fill="currentColor"/>
<path d="M53.082 23.6602L45.3242 21.628L43.292 13.8682L54.8594 12.0948L53.082 23.6602Z" fill="currentColor"/>
<path d="M23.6475 13.8702L21.6162 21.628L13.8574 23.6592L12.0859 12.0958L23.6475 13.8702Z" fill="currentColor"/>
<path d="M39.5459 12.0958L33.4697 15.1622L27.3936 12.0948L33.4717 0L39.5459 12.0958Z" fill="currentColor"/>
</g>
<defs>
<clipPath id="clip0_651_120">
<rect width="67" height="67" fill="white"/>
</clipPath>
</defs>
</svg>
