<svg width="67" height="67" viewBox="0 0 67 67" fill="none" xmlns="http://www.w3.org/2000/svg">
<path d="M42.0527 44.3516L40.3135 51.6523L33.4717 48.2139L33.4707 48.2109L26.627 51.6514L24.8887 44.3525L33.4717 36.4844L42.0527 44.3516Z" fill="currentColor"/>
<path d="M30.4717 33.4844L22.6025 42.0664L15.3047 40.3281L18.7441 33.4844L15.3047 26.6406L22.6025 24.9023L30.4717 33.4844Z" fill="currentColor"/>
<path d="M51.6377 26.6406L48.1973 33.4844L51.6377 40.3281L44.3379 42.0654L36.4717 33.4844L44.3389 24.9033L51.6377 26.6406Z" fill="currentColor"/>
<path d="M42.0537 22.6162L33.4707 30.4785L24.8887 22.6162L26.627 15.3174L33.4658 18.7549L40.3135 15.3164L42.0537 22.6162Z" fill="currentColor"/>
</svg>
