<svg width="67" height="67" viewBox="0 0 67 67" fill="none" xmlns="http://www.w3.org/2000/svg">
<path d="M21.6192 45.3359L23.6504 53.0938L12.0859 54.8682L13.8604 43.3047L21.6192 45.3359Z" fill="currentColor"/>
<path d="M54.8623 54.8691L43.2949 53.0957L45.3272 45.3359L53.085 43.3037L54.8623 54.8691Z" fill="currentColor"/>
<path d="M42.0547 44.3486L40.3154 51.6494L33.4736 48.2109L33.4727 48.208L26.6289 51.6484L24.8906 44.3496L33.4736 36.4814L42.0547 44.3486Z" fill="currentColor"/>
<path d="M30.4736 33.4814L22.6045 42.0635L15.3067 40.3252L18.7461 33.4814L15.3067 26.6377L22.6045 24.8994L30.4736 33.4814Z" fill="currentColor"/>
<path d="M51.6397 26.6377L48.1992 33.4814L51.6397 40.3252L44.3399 42.0625L36.4736 33.4814L44.3408 24.9004L51.6397 26.6377Z" fill="currentColor"/>
<path d="M42.0557 22.6133L33.4727 30.4756L24.8906 22.6133L26.6289 15.3145L33.4678 18.752L40.3154 15.3135L42.0557 22.6133Z" fill="currentColor"/>
<path d="M53.085 23.6592L45.3272 21.627L43.2949 13.8672L54.8623 12.0938L53.085 23.6592Z" fill="currentColor"/>
<path d="M23.6504 13.8691L21.6192 21.627L13.8604 23.6582L12.0889 12.0947L23.6504 13.8691Z" fill="currentColor"/>
</svg>
