<svg width="229" height="229" viewBox="0 0 229 229" fill="none" xmlns="http://www.w3.org/2000/svg">
<path d="M225.422 114.29C225.535 175.405 175.695 225.378 114.581 225.421C88.1851 225.44 63.9398 216.239 44.8867 200.862C39.9323 196.863 39.562 189.438 44.0642 184.936L49.1035 179.896C52.954 176.046 59.1012 175.625 63.3673 179.009C77.4047 190.148 95.1696 196.797 114.5 196.797C159.989 196.797 196.797 159.982 196.797 114.5C196.797 69.0108 159.982 32.2031 114.5 32.2031C92.6672 32.2031 72.8377 40.6873 58.1141 54.536L80.8146 77.2365C85.3231 81.745 82.13 89.4531 75.7547 89.4531H10.7344C6.78189 89.4531 3.57812 86.2494 3.57812 82.2969V17.2765C3.57812 10.9012 11.2863 7.70818 15.7947 12.2162L37.8771 34.2986C57.7907 15.2679 84.7801 3.57812 114.5 3.57812C175.69 3.57812 225.309 53.1262 225.422 114.29ZM144.506 149.528L148.9 143.879C152.539 139.199 151.696 132.455 147.017 128.815L128.812 114.656V67.9844C128.812 62.0559 124.007 57.25 118.078 57.25H110.922C104.993 57.25 100.188 62.0559 100.188 67.9844V128.656L129.443 151.411C134.122 155.05 140.866 154.207 144.506 149.528Z" fill="black"/>
</svg>
