<svg width="67" height="67" viewBox="0 0 67 67" fill="none" xmlns="http://www.w3.org/2000/svg">
<path d="M31.5337 51.9043L29.0022 54.1598L31.5337 56.4677V61L11 49.1956V40.1014L31.5337 51.9043Z" fill="#7D5C3F"/>
<path d="M55 49.1956L34.4663 61V56.4677L36.9978 54.1598L34.4663 51.9043L55 40.1014V49.1956Z" fill="#7D5C3F"/>
<path d="M13.3498 20.7739V29.3814L31.5383 39.836L29.0067 42.0915L31.5383 44.3995V48.9317L11.0038 37.1266L11 18.8272L13.3498 20.7739Z" fill="#7D5C3F"/>
<path d="M54.9962 37.1266L34.4617 48.9317V44.3995L36.9933 42.0915L34.4617 39.836L52.6502 29.3814V20.7739L55 18.8272L54.9962 37.1266Z" fill="#7D5C3F"/>
<path d="M31.5177 15.3231V23.4994L28.9861 25.7549L31.5177 28.0628V37.3859L15.301 28.0628V6L31.5177 15.3231Z" fill="#7D5C3F"/>
<path d="M50.699 28.0628L34.4823 37.3859V28.0628L37.0139 25.7549L34.4823 23.4994V15.3231L50.699 6V28.0628Z" fill="#7D5C3F"/>
</svg>
