<svg width="67" height="67" viewBox="0 0 67 67" fill="none" xmlns="http://www.w3.org/2000/svg">
<g clip-path="url(#clip0_651_147)">
<path d="M24.2358 41.504L15.1124 36.9609L12.7891 46.6011L24.2435 56.9979L24.2358 41.504Z" fill="currentColor"/>
<path d="M0 33.0008L10.5012 44.3374L20.2383 42.0411L15.6496 33.0008L20.2383 23.9604L10.5012 21.6641L0 33.0008Z" fill="currentColor"/>
<path d="M24.2435 9L12.7891 19.3967L15.1124 29.0369L24.2435 24.4939V9Z" fill="currentColor"/>
<path d="M47.0078 23.9604L51.6004 33.0008L47.0078 42.0411L56.7449 44.3374L67.2461 33.0008L56.7449 21.6641L47.0078 23.9604Z" fill="currentColor"/>
<path d="M54.4545 46.6011L52.135 36.957L43 41.5039L43.0077 56.9978L54.4545 46.6011Z" fill="currentColor"/>
<path d="M54.4584 19.3967L43.0078 9V24.49V24.4939L52.1351 29.0408L54.4584 19.3967Z" fill="currentColor"/>
</g>
<defs>
<clipPath id="clip0_651_147">
<rect width="67" height="67" fill="white"/>
</clipPath>
</defs>
</svg>
