<svg width="67" height="67" viewBox="0 0 67 67" fill="none" xmlns="http://www.w3.org/2000/svg">
<g clip-path="url(#clip0_651_138)">
<path d="M45.0751 46.6061L42.7293 36.9609L33.4966 41.5072L24.2717 36.9647L21.9297 46.6023L33.5043 57.0008L45.0751 46.6061Z" fill="#7D5C3F"/>
<path d="M9 33.0013L19.6162 44.3386L29.4595 42.0408L24.818 33.0013L29.4595 23.9618L19.6162 21.6641L9 33.0013Z" fill="#7D5C3F"/>
<path d="M37.5469 23.9618L42.1883 33.0013L37.5469 42.0408L47.3863 44.3348L58.0025 33.0013L47.3863 21.6641L37.5469 23.9618Z" fill="#7D5C3F"/>
<path d="M45.079 19.3985L33.5043 9L21.9297 19.3985L24.2717 29.0399L33.5043 24.4898V24.4936L42.7293 29.0399L45.079 19.3985Z" fill="#7D5C3F"/>
</g>
<defs>
<clipPath id="clip0_651_138">
<rect width="49" height="48" fill="white" transform="translate(9 9)"/>
</clipPath>
</defs>
</svg>
