<svg width="2059" height="2059" viewBox="0 0 2059 2059" fill="none" xmlns="http://www.w3.org/2000/svg">
<circle cx="1029.5" cy="1029.5" r="1029.5" fill="url(#paint0_linear_506_2)"/>
<path fill-rule="evenodd" clip-rule="evenodd" d="M1722.4 1152.08C1718.74 1182.13 1708.09 1211.4 1694.32 1236.69C1655.63 1039.72 1607.18 956.364 1272.76 956.364H1090.94C1032.99 956.364 986.015 1003.34 986.015 1061.28C986.015 1119.22 1032.99 1166.19 1090.94 1166.19H1272.76C1409.22 1166.19 1519.85 1276.81 1519.85 1413.27C1519.85 1549.73 1409.22 1660.35 1272.76 1660.35C1159.11 1666.34 1090.24 1666.91 969.59 1660.35C569.878 1660.35 303.294 1215.98 452.854 861.752C536.982 630.752 766.092 460.792 1049.03 460.792C1021.53 387.734 964.87 336.422 718.538 329.707C765.642 321.458 814.104 317.156 863.573 317.156C1115.26 317.156 1340.93 428.502 1494.02 604.619H1049.03C796.752 604.619 592.243 809.116 592.243 1061.37C592.243 1313.63 796.752 1518.13 1049.03 1518.13H1230.95C1288.9 1518.13 1335.87 1471.16 1335.87 1413.21C1335.87 1355.27 1288.9 1308.3 1230.95 1308.3H1049.03C912.646 1308.3 802.086 1197.75 802.086 1061.37C802.086 924.997 912.646 814.445 1049.03 814.445H1379.11C1530.1 814.445 1704.69 903.159 1722.4 1053.09C1726.24 1085.55 1726.6 1117.66 1722.4 1152.08Z" fill="white"/>
<defs>
<linearGradient id="paint0_linear_506_2" x1="1029.5" y1="0" x2="1029.5" y2="2059" gradientUnits="userSpaceOnUse">
<stop stop-color="#4A2F17"/>
<stop offset="1" stop-color="#F1C198"/>
</linearGradient>
</defs>
</svg>
