<svg width="1440" height="1024" viewBox="0 0 1440 1024" fill="none" xmlns="http://www.w3.org/2000/svg">
<g clip-path="url(#clip0_509_15)">
<path opacity="0.154" fill-rule="evenodd" clip-rule="evenodd" d="M-217.583 475.751C-125.763 403.731 7.93716 446.371 123.617 431.011C239.997 415.561 372.327 315.141 466.767 384.901C569.667 460.921 511.507 631.661 557.077 751.211C586.907 829.451 647.557 887.351 686.557 961.441C744.477 1071.43 856.227 1169.67 842.457 1293.21C828.937 1414.47 739.037 1557.54 618.227 1574.58C476.267 1594.61 385.507 1353.62 244.167 1377.59C92.4672 1403.32 71.4871 1707.83 -81.6829 1693.31C-210.283 1681.11 -192.583 1462.58 -209.833 1334.55C-221.993 1244.41 -143.963 1158.3 -165.733 1069.98C-192.153 962.781 -332.853 906.521 -342.453 796.531C-352.603 680.241 -309.443 547.781 -217.583 475.741V475.751Z" fill="url(#paint0_linear_509_15)"/>
<path opacity="0.154" fill-rule="evenodd" clip-rule="evenodd" d="M1103.43 115.427C1249.85 95.9767 1378.76 -40.4133 1516.93 11.8367C1705.02 82.9667 1925.93 224.477 1923.99 425.717C1922.05 626.967 1664.71 704.317 1509.03 831.677C1379.03 938.027 1268.79 1126.07 1103.43 1096.98C939.733 1068.18 941.503 822.857 819.093 710.317C684.143 586.257 383.093 608.857 373.273 425.717C363.593 245.337 620.683 179.417 786.813 108.817C887.823 65.8867 994.643 129.877 1103.43 115.427Z" fill="url(#paint1_linear_509_15)"/>
</g>
<defs>
<linearGradient id="paint0_linear_509_15" x1="-1083.5" y1="1770" x2="658.5" y2="755.5" gradientUnits="userSpaceOnUse">
<stop stop-color="#7D5C3F"/>
<stop offset="1" stop-color="#ED8122"/>
</linearGradient>
<linearGradient id="paint1_linear_509_15" x1="710.5" y1="759.5" x2="2226" y2="-6.11585e-05" gradientUnits="userSpaceOnUse">
<stop stop-color="#382718"/>
<stop offset="1" stop-color="#7D5C3F"/>
</linearGradient>
<clipPath id="clip0_509_15">
<rect width="1440" height="1024" fill="white"/>
</clipPath>
</defs>
</svg>
