<svg width="2491" height="1032" viewBox="0 0 2491 1032" fill="none" xmlns="http://www.w3.org/2000/svg">
<g clip-path="url(#clip0_669_738)">
<path fill-rule="evenodd" clip-rule="evenodd" d="M162 243C194.585 243 221 269.415 221 302C221 334.585 194.585 361 162 361C129.415 361 103 334.585 103 302C103 269.415 129.415 243 162 243ZM162 244C129.967 244 104 269.967 104 302C104 334.033 129.967 360 162 360C174.163 360 185.45 356.255 194.774 349.857C163.786 353.064 139.5 328.353 139.5 301.523C139.5 275.218 163.296 250.911 193.023 252.986C184.052 247.296 173.411 244 162 244ZM194.78 254.146C164.795 250.96 140.5 275.251 140.5 301.523C140.5 328.296 165.236 352.959 196.476 348.645C210.747 338.079 220 321.12 220 302C220 282.132 210.01 264.598 194.78 254.146Z" fill="#7D5C3F"/>
<path d="M378.307 227.176L375.188 233.382L372.067 227.176L375.187 225.601L378.307 227.176Z" fill="#7D5C3F"/>
<path d="M369.1 222.281L370.143 226.264L364.205 227.176L365.116 221.238L369.1 222.281Z" fill="#7D5C3F"/>
<path d="M386.171 227.176L380.231 226.265L381.274 222.281L385.258 221.237L386.171 227.176Z" fill="#7D5C3F"/>
<path d="M379.594 221.774L378.701 225.523L375.187 223.757L375.187 223.756L371.673 225.522L370.78 221.774L375.187 217.734L379.594 221.774Z" fill="#7D5C3F"/>
<path d="M373.647 216.193L369.606 220.6L365.859 219.708L367.625 216.193L365.859 212.679L369.606 211.787L373.647 216.193Z" fill="#7D5C3F"/>
<path d="M384.516 212.679L382.749 216.193L384.516 219.708L380.767 220.6L376.728 216.193L380.768 211.787L384.516 212.679Z" fill="#7D5C3F"/>
<path d="M365.859 216.193L364.204 219.314L358 216.193L364.204 213.073L365.859 216.193Z" fill="#7D5C3F"/>
<path d="M392.376 216.193L386.17 219.314L384.594 216.193L386.17 213.073L392.376 216.193Z" fill="#7D5C3F"/>
<path d="M379.594 210.613L375.187 214.65L370.78 210.613L371.673 206.865L375.184 208.63L378.701 206.864L379.594 210.613Z" fill="#7D5C3F"/>
<path d="M385.258 211.15L381.274 210.106L380.231 206.121L386.171 205.211L385.258 211.15Z" fill="#7D5C3F"/>
<path d="M370.143 206.122L369.1 210.106L365.116 211.149L364.206 205.211L370.143 206.122Z" fill="#7D5C3F"/>
<path d="M378.307 205.211L375.187 206.786L372.067 205.211L375.188 199L378.307 205.211Z" fill="#7D5C3F"/>
<path d="M859.307 427.176L856.188 433.382L853.067 427.176L856.187 425.601L859.307 427.176Z" fill="#7D5C3F"/>
<path d="M850.1 422.281L851.143 426.264L845.205 427.176L846.116 421.238L850.1 422.281Z" fill="#7D5C3F"/>
<path d="M867.171 427.176L861.231 426.265L862.274 422.281L866.258 421.237L867.171 427.176Z" fill="#7D5C3F"/>
<path d="M860.594 421.774L859.701 425.523L856.187 423.757L856.187 423.756L852.673 425.522L851.78 421.774L856.187 417.734L860.594 421.774Z" fill="#7D5C3F"/>
<path d="M854.647 416.193L850.606 420.6L846.859 419.708L848.625 416.193L846.859 412.679L850.606 411.787L854.647 416.193Z" fill="#7D5C3F"/>
<path d="M865.516 412.679L863.749 416.193L865.516 419.708L861.767 420.6L857.728 416.193L861.768 411.787L865.516 412.679Z" fill="#7D5C3F"/>
<path d="M846.859 416.193L845.204 419.314L839 416.193L845.204 413.073L846.859 416.193Z" fill="#7D5C3F"/>
<path d="M873.376 416.193L867.17 419.314L865.594 416.193L867.17 413.073L873.376 416.193Z" fill="#7D5C3F"/>
<path d="M860.594 410.613L856.187 414.65L851.78 410.613L852.673 406.865L856.184 408.63L859.701 406.864L860.594 410.613Z" fill="#7D5C3F"/>
<path d="M866.258 411.15L862.274 410.106L861.231 406.121L867.171 405.211L866.258 411.15Z" fill="#7D5C3F"/>
<path d="M851.143 406.122L850.1 410.106L846.116 411.149L845.206 405.211L851.143 406.122Z" fill="#7D5C3F"/>
<path d="M859.307 405.211L856.187 406.786L853.067 405.211L856.188 399L859.307 405.211Z" fill="#7D5C3F"/>
<path d="M143.307 726.176L140.188 732.382L137.067 726.176L140.187 724.601L143.307 726.176Z" fill="#7D5C3F"/>
<path d="M134.1 721.281L135.143 725.264L129.205 726.176L130.116 720.238L134.1 721.281Z" fill="#7D5C3F"/>
<path d="M151.171 726.176L145.231 725.265L146.274 721.281L150.258 720.237L151.171 726.176Z" fill="#7D5C3F"/>
<path d="M144.594 720.774L143.701 724.523L140.187 722.757L140.187 722.756L136.673 724.522L135.78 720.774L140.187 716.734L144.594 720.774Z" fill="#7D5C3F"/>
<path d="M138.647 715.193L134.606 719.6L130.859 718.708L132.625 715.193L130.859 711.679L134.606 710.787L138.647 715.193Z" fill="#7D5C3F"/>
<path d="M149.516 711.679L147.749 715.193L149.516 718.708L145.767 719.6L141.728 715.193L145.768 710.787L149.516 711.679Z" fill="#7D5C3F"/>
<path d="M130.859 715.193L129.204 718.314L123 715.193L129.204 712.073L130.859 715.193Z" fill="#7D5C3F"/>
<path d="M157.376 715.193L151.17 718.314L149.594 715.193L151.17 712.073L157.376 715.193Z" fill="#7D5C3F"/>
<path d="M144.594 709.613L140.187 713.65L135.78 709.613L136.673 705.865L140.184 707.63L143.701 705.864L144.594 709.613Z" fill="#7D5C3F"/>
<path d="M150.258 710.15L146.274 709.106L145.231 705.121L151.171 704.211L150.258 710.15Z" fill="#7D5C3F"/>
<path d="M135.143 705.122L134.1 709.106L130.116 710.149L129.206 704.211L135.143 705.122Z" fill="#7D5C3F"/>
<path d="M143.307 704.211L140.187 705.786L137.067 704.211L140.188 698L143.307 704.211Z" fill="#7D5C3F"/>
<path d="M771.895 466.07L772.938 470.054L767 470.965L767.911 465.027L771.895 466.07Z" fill="#7D5C3F"/>
<path d="M788.966 470.965L783.026 470.055L784.07 466.07L788.053 465.026L788.966 470.965Z" fill="#7D5C3F"/>
<path d="M782.389 465.563L781.496 469.312L777.983 467.546L777.982 467.545L774.468 469.312L773.575 465.564L777.983 461.523L782.389 465.563Z" fill="#7D5C3F"/>
<path d="M776.442 459.983L772.401 464.39L768.654 463.497L770.42 459.983L768.654 456.468L772.401 455.576L776.442 459.983Z" fill="#7D5C3F"/>
<path d="M787.311 456.468L785.544 459.983L787.311 463.497L783.563 464.389L779.523 459.983L783.563 455.576L787.311 456.468Z" fill="#7D5C3F"/>
<path d="M782.39 454.402L777.982 458.439L773.575 454.402L774.468 450.654L777.98 452.419L781.496 450.653L782.39 454.402Z" fill="#7D5C3F"/>
<path d="M788.053 454.939L784.07 453.895L783.026 449.911L788.966 449L788.053 454.939Z" fill="#7D5C3F"/>
<path d="M772.938 449.912L771.895 453.895L767.911 454.938L767.002 449.001L772.938 449.912Z" fill="#7D5C3F"/>
<path d="M31.8954 832.07L32.9384 836.054L27 836.965L27.9112 831.027L31.8954 832.07Z" fill="#7D5C3F"/>
<path d="M48.9659 836.965L43.026 836.055L44.0695 832.07L48.0532 831.026L48.9659 836.965Z" fill="#7D5C3F"/>
<path d="M42.3891 831.563L41.496 835.312L37.9827 833.546L37.9822 833.545L34.4679 835.312L33.5753 831.564L37.9827 827.523L42.3891 831.563Z" fill="#7D5C3F"/>
<path d="M36.4422 825.983L32.4013 830.39L28.6539 829.497L30.42 825.983L28.6539 822.468L32.4013 821.576L36.4422 825.983Z" fill="#7D5C3F"/>
<path d="M47.311 822.468L45.5444 825.983L47.311 829.497L43.5626 830.389L39.5232 825.983L43.5631 821.576L47.311 822.468Z" fill="#7D5C3F"/>
<path d="M42.3896 820.402L37.9822 824.439L33.5753 820.402L34.4679 816.654L37.9797 818.419L41.496 816.653L42.3896 820.402Z" fill="#7D5C3F"/>
<path d="M48.0532 820.939L44.0695 819.895L43.026 815.911L48.9659 815L48.0532 820.939Z" fill="#7D5C3F"/>
<path d="M32.9384 815.912L31.8954 819.895L27.9112 820.938L27.0015 815.001L32.9384 815.912Z" fill="#7D5C3F"/>
<path d="M497.895 308.07L498.938 312.054L493 312.965L493.911 307.027L497.895 308.07Z" fill="#7D5C3F"/>
<path d="M514.966 312.965L509.026 312.055L510.07 308.07L514.053 307.026L514.966 312.965Z" fill="#7D5C3F"/>
<path d="M508.389 307.563L507.496 311.312L503.983 309.546L503.982 309.545L500.468 311.312L499.575 307.564L503.983 303.523L508.389 307.563Z" fill="#7D5C3F"/>
<path d="M502.442 301.983L498.401 306.39L494.654 305.497L496.42 301.983L494.654 298.468L498.401 297.576L502.442 301.983Z" fill="#7D5C3F"/>
<path d="M513.311 298.468L511.544 301.983L513.311 305.497L509.563 306.389L505.523 301.983L509.563 297.576L513.311 298.468Z" fill="#7D5C3F"/>
<path d="M508.39 296.402L503.982 300.439L499.575 296.402L500.468 292.654L503.98 294.419L507.496 292.653L508.39 296.402Z" fill="#7D5C3F"/>
<path d="M514.053 296.939L510.07 295.895L509.026 291.911L514.966 291L514.053 296.939Z" fill="#7D5C3F"/>
<path d="M498.938 291.912L497.895 295.895L493.911 296.938L493.002 291.001L498.938 291.912Z" fill="#7D5C3F"/>
<path d="M37.8954 180.07L38.9384 184.054L33 184.965L33.9112 179.027L37.8954 180.07Z" fill="#7D5C3F"/>
<path d="M54.9659 184.965L49.026 184.055L50.0695 180.07L54.0532 179.026L54.9659 184.965Z" fill="#7D5C3F"/>
<path d="M48.3891 179.563L47.496 183.312L43.9827 181.546L43.9822 181.545L40.4679 183.312L39.5753 179.564L43.9827 175.523L48.3891 179.563Z" fill="#7D5C3F"/>
<path d="M42.4422 173.983L38.4013 178.39L34.6539 177.497L36.42 173.983L34.6539 170.468L38.4013 169.576L42.4422 173.983Z" fill="#7D5C3F"/>
<path d="M53.311 170.468L51.5444 173.983L53.311 177.497L49.5626 178.389L45.5232 173.983L49.5631 169.576L53.311 170.468Z" fill="#7D5C3F"/>
<path d="M48.3896 168.402L43.9822 172.439L39.5753 168.402L40.4679 164.654L43.9797 166.419L47.496 164.653L48.3896 168.402Z" fill="#7D5C3F"/>
<path d="M54.0532 168.939L50.0695 167.895L49.026 163.911L54.9659 163L54.0532 168.939Z" fill="#7D5C3F"/>
<path d="M38.9384 163.912L37.8954 167.895L33.9112 168.938L33.0015 163.001L38.9384 163.912Z" fill="#7D5C3F"/>
<path d="M725.735 161.91L724.842 165.659L721.329 163.893L721.328 163.892L717.814 165.658L716.921 161.91L721.329 157.87L725.735 161.91Z" fill="#7D5C3F"/>
<path d="M719.788 156.329L715.747 160.736L712 159.844L713.766 156.329L712 152.815L715.747 151.922L719.788 156.329Z" fill="#7D5C3F"/>
<path d="M730.657 152.815L728.891 156.329L730.657 159.844L726.909 160.736L722.869 156.329L726.909 151.923L730.657 152.815Z" fill="#7D5C3F"/>
<path d="M725.736 150.748L721.328 154.786L716.921 150.748L717.814 147.001L721.326 148.766L724.842 147L725.736 150.748Z" fill="#7D5C3F"/>
<path d="M852.735 280.91L851.842 284.659L848.329 282.893L848.328 282.892L844.814 284.658L843.921 280.91L848.329 276.87L852.735 280.91Z" fill="#7D5C3F"/>
<path d="M846.788 275.329L842.747 279.736L839 278.844L840.766 275.329L839 271.815L842.747 270.922L846.788 275.329Z" fill="#7D5C3F"/>
<path d="M857.657 271.815L855.891 275.329L857.657 278.844L853.909 279.736L849.869 275.329L853.909 270.923L857.657 271.815Z" fill="#7D5C3F"/>
<path d="M852.736 269.748L848.328 273.786L843.921 269.748L844.814 266.001L848.326 267.766L851.842 266L852.736 269.748Z" fill="#7D5C3F"/>
<path d="M59.7353 452.91L58.8421 456.659L55.3288 454.893L55.3283 454.892L51.814 456.658L50.9214 452.91L55.3288 448.87L59.7353 452.91Z" fill="#7D5C3F"/>
<path d="M53.7883 447.329L49.7475 451.736L46 450.844L47.7662 447.329L46 443.815L49.7475 442.922L53.7883 447.329Z" fill="#7D5C3F"/>
<path d="M64.6572 443.815L62.8905 447.329L64.6572 450.844L60.9087 451.736L56.8694 447.329L60.9092 442.923L64.6572 443.815Z" fill="#7D5C3F"/>
<path d="M59.7358 441.748L55.3283 445.786L50.9214 441.748L51.814 438.001L55.3258 439.766L58.8421 438L59.7358 441.748Z" fill="#7D5C3F"/>
<path d="M330.735 356.91L329.842 360.659L326.329 358.893L326.328 358.892L322.814 360.658L321.921 356.91L326.329 352.87L330.735 356.91Z" fill="#7D5C3F"/>
<path d="M324.788 351.329L320.747 355.736L317 354.844L318.766 351.329L317 347.815L320.747 346.922L324.788 351.329Z" fill="#7D5C3F"/>
<path d="M335.657 347.815L333.891 351.329L335.657 354.844L331.909 355.736L327.869 351.329L331.909 346.923L335.657 347.815Z" fill="#7D5C3F"/>
<path d="M330.736 345.748L326.328 349.786L321.921 345.748L322.814 342.001L326.326 343.766L329.842 342L330.736 345.748Z" fill="#7D5C3F"/>
<path d="M269.735 169.91L268.842 173.659L265.329 171.893L265.328 171.892L261.814 173.658L260.921 169.91L265.329 165.87L269.735 169.91Z" fill="#7D5C3F"/>
<path d="M263.788 164.329L259.747 168.736L256 167.844L257.766 164.329L256 160.815L259.747 159.922L263.788 164.329Z" fill="#7D5C3F"/>
<path d="M274.657 160.815L272.891 164.329L274.657 167.844L270.909 168.736L266.869 164.329L270.909 159.923L274.657 160.815Z" fill="#7D5C3F"/>
<path d="M269.736 158.748L265.328 162.786L260.921 158.748L261.814 155.001L265.326 156.766L268.842 155L269.736 158.748Z" fill="#7D5C3F"/>
<path d="M162.5 410V366.5H161.5V410H162.5ZM162.5 422.5V414.5H161.5V422.5H162.5Z" fill="#7D5C3F"/>
<path d="M162.5 194.5V237.5H161.5V194.5H162.5ZM162.5 182V190H161.5V182H162.5Z" fill="#7D5C3F"/>
<path d="M269.75 301.75H226.5V302.75H269.75V301.75ZM282.25 301.75H274.25V302.75H282.25V301.75Z" fill="#7D5C3F"/>
<path d="M54.25 301.75H97.5V302.75H54.25V301.75ZM41.75 301.75H49.75V302.75H41.75V301.75Z" fill="#7D5C3F"/>
<path d="M243.002 382.537L207.855 347.39L207.148 348.098L242.294 383.244L243.002 382.537ZM252.356 391.891L246.369 385.904L245.662 386.611L251.648 392.598L252.356 391.891Z" fill="#7D5C3F"/>
<path d="M81.7251 221.268L116.605 256.148L115.898 256.855L81.018 221.975L81.7251 221.268ZM72.3712 211.914L78.3581 217.901L77.651 218.608L71.6641 212.621L72.3712 211.914Z" fill="#7D5C3F"/>
<path d="M81.733 383.244L116.856 348.121L116.148 347.414L81.0258 382.537L81.733 383.244ZM72.379 392.598L78.3659 386.611L77.6588 385.904L71.6719 391.891L72.379 392.598Z" fill="#7D5C3F"/>
<path d="M243.002 221.975L208.125 256.852L207.418 256.145L242.294 221.268L243.002 221.975ZM252.356 212.621L246.369 218.608L245.662 217.901L251.648 211.914L252.356 212.621Z" fill="#7D5C3F"/>
<path d="M196.073 383.172L187.017 361.308L186.093 361.691L195.149 383.555L196.073 383.172ZM199.971 392.582L197.476 386.56L196.552 386.942L199.047 392.965L199.971 392.582Z" fill="#7D5C3F"/>
<path d="M128.876 220.946L137.725 242.308L136.801 242.691L127.953 221.328L128.876 220.946ZM124.979 211.535L127.473 217.558L126.549 217.94L124.055 211.918L124.979 211.535Z" fill="#7D5C3F"/>
<path d="M81.0976 336.315L102.695 327.369L102.312 326.445L80.7149 335.391L81.0976 336.315ZM71.6874 340.213L77.7097 337.718L77.327 336.795L71.3047 339.289L71.6874 340.213Z" fill="#7D5C3F"/>
<path d="M243.324 269.119L221.972 277.963L221.589 277.039L242.941 268.195L243.324 269.119ZM252.734 265.221L246.712 267.715L246.329 266.791L252.352 264.297L252.734 265.221Z" fill="#7D5C3F"/>
<path d="M243.316 335.393L221.695 326.437L221.313 327.361L242.934 336.317L243.316 335.393ZM252.726 339.291L246.704 336.796L246.321 337.72L252.344 340.215L252.726 339.291Z" fill="#7D5C3F"/>
<path d="M81.0898 268.201L102.423 277.037L102.04 277.961L80.7071 269.124L81.0898 268.201ZM71.6796 264.303L77.7019 266.797L77.3192 267.721L71.2969 265.227L71.6796 264.303Z" fill="#7D5C3F"/>
<path d="M128.876 383.558L137.934 361.691L137.01 361.308L127.953 383.176L128.876 383.558ZM124.979 392.969L127.473 386.946L126.549 386.564L124.055 392.586L124.979 392.969Z" fill="#7D5C3F"/>
<path d="M196.073 221.332L187.226 242.691L186.302 242.309L195.149 220.949L196.073 221.332ZM199.971 211.922L197.476 217.944L196.552 217.561L199.047 211.539L199.971 211.922Z" fill="#7D5C3F"/>
<path d="M241.387 354.697L215.774 337.583L215.218 338.415L240.832 355.529L241.387 354.697ZM250.563 360.829L244.69 356.904L244.135 357.736L250.008 361.66L250.563 360.829Z" fill="#7D5C3F"/>
<path d="M83.1849 248.991L108.274 265.756L107.719 266.587L82.6293 249.823L83.1849 248.991ZM74.0087 242.86L79.8818 246.784L79.3262 247.616L73.4531 243.691L74.0087 242.86Z" fill="#7D5C3F"/>
<path d="M109.588 381.637L126.866 355.778L126.035 355.222L108.756 381.082L109.588 381.637ZM103.456 390.813L107.381 384.94L106.549 384.385L102.625 390.258L103.456 390.813Z" fill="#7D5C3F"/>
<path d="M215.294 223.435L198.417 248.692L197.586 248.137L214.462 222.879L215.294 223.435ZM221.425 214.259L217.501 220.132L216.669 219.576L220.594 213.703L221.425 214.259Z" fill="#7D5C3F"/>
<path d="M181.062 395.473L174.989 364.939L174.008 365.134L180.081 395.668L181.062 395.473ZM183.215 406.297L181.837 399.369L180.856 399.564L182.234 406.492L183.215 406.297Z" fill="#7D5C3F"/>
<path d="M143.939 208.856L149.816 238.403L148.835 238.598L142.958 209.051L143.939 208.856ZM141.785 198.031L143.163 204.959L142.183 205.154L140.805 198.227L141.785 198.031Z" fill="#7D5C3F"/>
<path d="M68.816 321.312L98.8411 315.34L98.646 314.359L68.621 320.331L68.816 321.312ZM57.992 323.465L64.9197 322.087L64.7246 321.106L57.7969 322.484L57.992 323.465Z" fill="#7D5C3F"/>
<path d="M255.426 284.196L225.425 290.164L225.23 289.183L255.231 283.216L255.426 284.196ZM266.25 282.043L259.322 283.421L259.127 282.441L266.055 281.062L266.25 282.043Z" fill="#7D5C3F"/>
<path d="M255.418 320.339L225.317 314.351L225.122 315.332L255.223 321.32L255.418 320.339ZM266.242 322.492L259.314 321.114L259.119 322.095L266.047 323.473L266.242 322.492Z" fill="#7D5C3F"/>
<path d="M68.8004 283.219L98.6013 289.147L98.4063 290.128L68.6053 284.2L68.8004 283.219ZM57.9763 281.066L64.9041 282.444L64.709 283.425L57.7812 282.047L57.9763 281.066Z" fill="#7D5C3F"/>
<path d="M143.946 395.668L149.989 365.291L149.008 365.096L142.966 395.473L143.946 395.668ZM141.793 406.492L143.171 399.564L142.191 399.369L140.812 406.297L141.793 406.492Z" fill="#7D5C3F"/>
<path d="M181.062 209.054L175.141 238.823L174.16 238.628L180.081 208.859L181.062 209.054ZM183.215 198.23L181.837 205.158L180.856 204.963L182.234 198.035L183.215 198.23Z" fill="#7D5C3F"/>
<path d="M215.286 381.089L198.158 355.455L197.327 356.011L214.455 381.644L215.286 381.089ZM221.417 390.265L217.493 384.392L216.662 384.947L220.586 390.82L221.417 390.265Z" fill="#7D5C3F"/>
<path d="M109.572 222.886L126.417 248.097L125.586 248.652L108.741 223.442L109.572 222.886ZM103.441 213.71L107.365 219.583L106.534 220.139L102.609 214.266L103.441 213.71Z" fill="#7D5C3F"/>
<path d="M83.1927 355.54L108.774 338.447L108.219 337.615L82.6371 354.708L83.1927 355.54ZM74.0165 361.671L79.8896 357.747L79.334 356.916L73.4609 360.84L74.0165 361.671Z" fill="#7D5C3F"/>
<path d="M241.403 249.834L216.02 266.794L215.465 265.963L240.847 249.002L241.403 249.834ZM250.579 243.703L244.706 247.627L244.15 246.795L250.023 242.871L250.579 243.703Z" fill="#7D5C3F"/>
<path fill-rule="evenodd" clip-rule="evenodd" d="M56.1113 729.278L61.8887 727.491L47.2227 742.683L52.1113 740.303L39.6641 756.5C37 759.5 34.717 762.129 30.5547 762.129C24.1733 762.129 19.0002 756.919 19 750.493C19 746.261 22.2918 742.621 25.335 740.607L39.667 730.343L37.4443 735.534L50.7773 723.917L47.667 731.513L83.875 698L56.1113 729.278ZM29.5 746C26.4624 746 24 748.462 24 751.5C24 754.538 26.4624 757 29.5 757C32.5376 757 35 754.538 35 751.5C35 748.462 32.5376 746 29.5 746Z" fill="#7D5C3F"/>
<path d="M802 266.5C802 269.538 799.538 272 796.5 272C793.462 272 791 269.538 791 266.5C791 263.462 793.462 261 796.5 261C799.538 261 802 263.462 802 266.5Z" fill="#7D5C3F"/>
<circle cx="882.5" cy="271.5" r="5.5" fill="#7D5C3F"/>
<circle cx="770.5" cy="375.5" r="5.5" fill="#7D5C3F"/>
<circle cx="737.5" cy="345.5" r="5.5" fill="#7D5C3F"/>
<circle cx="761.5" cy="327.5" r="5.5" fill="#7D5C3F"/>
<circle cx="731.5" cy="222.5" r="5.5" fill="#7D5C3F"/>
<circle cx="910.5" cy="256.5" r="5.5" stroke="#7D5C3F" stroke-width="2"/>
<circle cx="843.5" cy="343.5" r="5.5" stroke="#7D5C3F" stroke-width="2"/>
<circle cx="812.5" cy="312.5" r="5.5" stroke="#7D5C3F" stroke-width="2"/>
<circle cx="721.5" cy="298.5" r="5.5" stroke="#7D5C3F" stroke-width="2"/>
<circle cx="797.5" cy="199.5" r="5.5" stroke="#7D5C3F" stroke-width="2"/>
<path d="M184.5 564C188.09 564 191 566.91 191 570.5C191 574.09 188.09 577 184.5 577C180.91 577 178 574.09 178 570.5C178 566.91 180.91 564 184.5 564ZM184.5 566C182.015 566 180 568.015 180 570.5C180 572.985 182.015 575 184.5 575C186.985 575 189 572.985 189 570.5C189 568.015 186.985 566 184.5 566Z" fill="#7D5C3F"/>
<circle cx="271.861" cy="615.968" r="7.5" transform="rotate(-2.14316 271.861 615.968)" stroke="#7D5C3F" stroke-width="2"/>
<circle cx="225.081" cy="622.721" r="10.5" transform="rotate(-2.14316 225.081 622.721)" stroke="#7D5C3F" stroke-width="2"/>
<circle cx="170.123" cy="624.777" r="15.5" transform="rotate(-2.14316 170.123 624.777)" stroke="#7D5C3F" stroke-width="2"/>
<circle cx="109.788" cy="617.027" r="15.5" transform="rotate(-2.14316 109.788 617.027)" stroke="#7D5C3F" stroke-width="2"/>
<circle cx="43.164" cy="601.509" r="21.5" transform="rotate(-2.14316 43.164 601.509)" stroke="#7D5C3F" stroke-width="2"/>
<path d="M833.8 347.895C834.053 347.785 834.348 347.901 834.458 348.154C834.568 348.407 834.453 348.702 834.2 348.812L779.7 372.54C779.446 372.65 779.152 372.534 779.041 372.281C778.931 372.028 779.047 371.733 779.3 371.623L833.8 347.895ZM743.13 351.081C743.316 350.877 743.632 350.862 743.836 351.048L763.836 369.257C764.041 369.442 764.055 369.759 763.87 369.964C763.684 370.168 763.367 370.183 763.163 369.997L743.163 351.788C742.958 351.602 742.944 351.285 743.13 351.081ZM753.704 332.607C753.926 332.444 754.239 332.491 754.403 332.714C754.566 332.936 754.518 333.249 754.295 333.413L745.795 339.658C745.573 339.821 745.261 339.773 745.097 339.551C744.934 339.328 744.981 339.016 745.204 338.852L753.704 332.607ZM819.143 319.532C819.337 319.335 819.653 319.333 819.85 319.526L835.85 335.276C836.047 335.47 836.05 335.786 835.856 335.983C835.662 336.18 835.346 336.183 835.149 335.989L819.149 320.239C818.952 320.045 818.95 319.729 819.143 319.532ZM730.092 305.122C730.252 304.897 730.565 304.845 730.789 305.005L754.289 321.749C754.514 321.909 754.567 322.221 754.407 322.446C754.246 322.671 753.934 322.723 753.709 322.563L730.209 305.819C729.985 305.659 729.932 305.347 730.092 305.122ZM839.858 283.151C840.05 282.953 840.367 282.949 840.565 283.141C840.763 283.334 840.767 283.651 840.575 283.848L820.142 304.848C819.95 305.046 819.633 305.051 819.435 304.858C819.237 304.666 819.233 304.349 819.425 304.151L839.858 283.151ZM787.973 270.539C788.228 270.432 788.52 270.552 788.627 270.806C788.734 271.061 788.614 271.354 788.36 271.461L731.693 295.26C731.438 295.367 731.145 295.247 731.039 294.993C730.932 294.738 731.052 294.445 731.306 294.339L787.973 270.539ZM730.315 232.004C730.589 232.04 730.782 232.291 730.746 232.565L723.575 287.065C723.539 287.339 723.287 287.532 723.013 287.496C722.739 287.46 722.546 287.208 722.582 286.934L729.754 232.434C729.79 232.161 730.041 231.968 730.315 232.004ZM872.942 272.104C873.216 272.072 873.465 272.269 873.497 272.544C873.528 272.818 873.331 273.066 873.057 273.097L861.057 274.489C860.783 274.521 860.535 274.325 860.503 274.051C860.472 273.776 860.668 273.528 860.942 273.496L872.942 272.104ZM901.763 260.613C902.006 260.483 902.309 260.574 902.44 260.817C902.57 261.061 902.479 261.363 902.236 261.494L891.136 267.44C890.893 267.571 890.589 267.479 890.458 267.236C890.328 266.993 890.42 266.69 890.663 266.559L901.763 260.613ZM797.345 210C797.621 210.004 797.841 210.231 797.837 210.508L797.154 257.008C797.149 257.283 796.923 257.504 796.647 257.5C796.371 257.496 796.15 257.268 796.154 256.992L796.838 210.492C796.843 210.216 797.069 209.996 797.345 210ZM723.08 167.006C723.353 166.965 723.607 167.152 723.648 167.426L730.494 212.95C730.535 213.223 730.347 213.478 730.074 213.519C729.801 213.56 729.546 213.372 729.505 213.099L722.66 167.574C722.619 167.301 722.806 167.047 723.08 167.006Z" fill="#7D5C3F"/>
<path d="M434.793 477.614C434.954 477.908 435.137 478.187 435.34 478.451C383.181 517.154 321.213 545.995 252.297 560.95C231.775 565.403 211.305 568.481 190.997 570.248C186.497 578.498 181.497 576.998 177.997 571.202C115.761 574.924 55.2991 566.38 -0.109375 547.47L0.212891 546.523C55.516 565.397 115.869 573.924 177.997 570.201C182.497 559.999 189.497 566.998 190.854 569.257C211.138 567.494 231.586 564.421 252.085 559.973C320.888 545.042 382.741 516.249 434.793 477.614ZM605.256 107.938C621.583 246.737 558.073 382.101 445.667 470.558C445.464 470.292 445.241 470.043 445.001 469.812C557.189 381.552 620.547 246.485 604.264 108.055L605.256 107.938Z" fill="#7D5C3F"/>
<path d="M295.192 656.824L295.303 657.311C293.666 657.685 292.026 658.05 290.381 658.407C288.759 658.759 287.137 659.102 285.515 659.435L285.414 658.945L285.314 658.457C286.932 658.124 288.55 657.781 290.169 657.43C291.81 657.074 293.447 656.71 295.08 656.336L295.192 656.824ZM265.807 662.021C269.064 661.5 272.321 660.942 275.58 660.346L275.759 661.329C272.494 661.926 269.229 662.486 265.966 663.009L265.807 662.021ZM314.493 651.441L314.759 652.406C311.547 653.292 308.317 654.144 305.072 654.962L304.827 653.993C308.066 653.177 311.288 652.325 314.493 651.441ZM246.164 664.721C249.44 664.344 252.719 663.931 256 663.48L256.069 663.975L256.136 664.47C252.848 664.922 249.561 665.337 246.277 665.714L246.164 664.721ZM333.679 645.683L333.988 646.634C330.818 647.663 327.631 648.659 324.426 649.621L324.138 648.663C327.336 647.704 330.517 646.71 333.679 645.683ZM226.419 666.546C229.71 666.316 233.005 666.048 236.302 665.744L236.348 666.241L236.393 666.739C233.089 667.045 229.787 667.313 226.489 667.544L226.454 667.045L226.419 666.546ZM352.597 639.066L352.773 639.534L352.949 640.002C349.824 641.175 346.68 642.315 343.518 643.421L343.354 642.948L343.188 642.476C346.343 641.372 349.479 640.236 352.597 639.066ZM206.613 667.489C209.912 667.406 213.215 667.285 216.521 667.128L216.545 667.628L216.569 668.127C213.255 668.285 209.945 668.406 206.639 668.489L206.626 667.989L206.613 667.489ZM371.193 631.604L371.587 632.524C368.515 633.838 365.422 635.119 362.311 636.368L362.125 635.904L361.939 635.439C365.043 634.194 368.128 632.915 371.193 631.604ZM186.785 667.546C190.085 667.61 193.39 667.637 196.7 667.628L196.701 668.128L196.702 668.629C193.385 668.638 190.073 668.61 186.766 668.545L186.785 667.546ZM389.431 623.312L389.647 623.762L389.865 624.213C386.853 625.666 383.819 627.087 380.766 628.475L380.559 628.02L380.352 627.564C383.398 626.179 386.425 624.761 389.431 623.312ZM166.973 666.716C170.268 666.928 173.569 667.103 176.875 667.241L176.855 667.741L176.833 668.241C173.519 668.102 170.211 667.927 166.909 667.714L166.941 667.215L166.973 666.716ZM407.273 614.206L407.748 615.086C404.802 616.674 401.834 618.232 398.846 619.757L398.391 618.866C401.373 617.344 404.333 615.791 407.273 614.206ZM147.218 665.001C150.5 665.36 153.79 665.683 157.086 665.969L157.042 666.467L156.999 666.965C153.695 666.678 150.398 666.355 147.109 665.995L147.163 665.499L147.218 665.001ZM424.684 604.304L425.198 605.162C422.327 606.881 419.435 608.569 416.52 610.226L416.026 609.357C418.934 607.704 421.82 606.019 424.684 604.304ZM127.559 662.408C130.822 662.913 134.094 663.381 137.373 663.814L137.242 664.806C133.955 664.372 130.676 663.902 127.405 663.396L127.559 662.408ZM441.633 593.628L441.909 594.045L442.184 594.461C439.395 596.307 436.583 598.124 433.748 599.91L433.483 599.486L433.216 599.063C436.044 597.281 438.85 595.469 441.633 593.628ZM108.034 658.943C111.272 659.592 114.52 660.207 117.777 660.784L117.69 661.276L117.602 661.769C114.338 661.19 111.083 660.575 107.837 659.925L108.034 658.943ZM458.085 582.202L458.674 583.011C455.971 584.979 453.244 586.918 450.494 588.828L450.209 588.417L449.923 588.007C452.667 586.101 455.388 584.166 458.085 582.202ZM88.6817 654.619C91.8888 655.41 95.1064 656.167 98.3336 656.888L98.1157 657.864C94.8812 657.141 91.6568 656.382 88.4425 655.589L88.6817 654.619ZM474.011 570.052L474.323 570.443L474.636 570.834C472.023 572.921 469.386 574.98 466.725 577.01L466.119 576.214C468.774 574.188 471.405 572.134 474.011 570.052ZM69.5398 649.445C72.7095 650.377 75.8906 651.275 79.0826 652.137L78.8213 653.102C75.6223 652.238 72.4341 651.339 69.2574 650.405L69.5398 649.445ZM489.382 557.206L490.04 557.959C487.522 560.16 484.979 562.333 482.412 564.479L481.771 563.712C484.333 561.571 486.87 559.401 489.382 557.206ZM50.642 643.44C53.7683 644.509 56.9071 645.544 60.0578 646.546L59.755 647.499C56.5972 646.495 53.451 645.457 50.3176 644.385L50.642 643.44ZM504.172 543.69L504.517 544.052L504.863 544.413C502.444 546.723 499.998 549.008 497.528 551.266L496.853 550.528C499.318 548.275 501.759 545.996 504.172 543.69ZM32.0221 636.615C35.0995 637.819 38.1907 638.99 41.2944 640.128L41.1226 640.598L40.9506 641.067C37.8401 639.927 34.7426 638.753 31.6586 637.546L31.8405 637.081L32.0221 636.615ZM518.352 529.538L518.713 529.884L519.074 530.23C516.758 532.645 514.415 535.035 512.046 537.399L511.693 537.045L511.34 536.691C513.704 534.332 516.041 531.948 518.352 529.538ZM13.7164 628.99C16.7394 630.327 19.7771 631.631 22.8284 632.902L22.6367 633.363L22.444 633.825C19.3861 632.551 16.3419 631.245 13.3124 629.905L13.5149 629.448L13.7164 628.99ZM531.899 514.779L532.275 515.109L532.651 515.439C530.442 517.953 528.206 520.443 525.943 522.909L525.207 522.233C527.465 519.773 529.695 517.287 531.899 514.779ZM0.212657 622.758C1.70187 623.475 3.19535 624.183 4.6921 624.884L4.47958 625.337L4.26802 625.789C2.76797 625.087 1.27104 624.377 -0.221458 623.659L-0.00429687 623.209L0.212657 622.758ZM544.792 499.446L545.572 500.072C543.474 502.68 541.348 505.265 539.194 507.827L538.811 507.504L538.429 507.182C540.578 504.627 542.699 502.048 544.792 499.446ZM557.01 483.569L557.413 483.865L557.815 484.162C555.832 486.857 553.82 489.531 551.78 492.183L551.383 491.878L550.987 491.573C553.023 488.928 555.031 486.259 557.01 483.569ZM568.534 467.182L568.949 467.461L569.364 467.74C567.498 470.517 565.603 473.274 563.68 476.01L563.271 475.723L562.861 475.435C564.781 472.705 566.672 469.954 568.534 467.182ZM579.346 450.315L580.199 450.838C578.453 453.693 576.678 456.529 574.874 459.344L574.452 459.074L574.031 458.804C575.832 455.995 577.604 453.165 579.346 450.315ZM589.429 433.003L590.304 433.489C588.681 436.416 587.028 439.325 585.344 442.214L584.912 441.963L584.481 441.711C586.16 438.828 587.81 435.924 589.429 433.003ZM598.769 415.278L599.216 415.501L599.663 415.725C598.165 418.719 596.637 421.697 595.078 424.656L594.193 424.191C595.749 421.238 597.274 418.267 598.769 415.278ZM607.35 397.172L608.263 397.581C606.892 400.638 605.49 403.678 604.057 406.701L603.154 406.272C604.584 403.256 605.983 400.222 607.35 397.172ZM615.161 378.719L616.09 379.09C614.849 382.203 613.576 385.3 612.271 388.382L611.81 388.187L611.35 387.993C612.652 384.917 613.922 381.825 615.161 378.719ZM622.186 359.959L623.129 360.29C622.02 363.452 620.879 366.601 619.706 369.734L619.238 369.558L618.769 369.383C619.94 366.256 621.08 363.115 622.186 359.959ZM628.416 340.921L628.895 341.067L629.373 341.212C628.398 344.417 627.391 347.609 626.35 350.788L625.4 350.476C626.438 347.304 627.443 344.119 628.416 340.921ZM633.843 321.638L634.812 321.889C633.972 325.131 633.1 328.361 632.194 331.579L631.231 331.308C632.134 328.097 633.005 324.873 633.843 321.638ZM638.459 302.145L639.437 302.354C638.734 305.627 637.997 308.889 637.227 312.14L636.741 312.025L636.255 311.91C637.023 308.666 637.757 305.411 638.459 302.145ZM642.255 282.474L642.748 282.558L643.241 282.643C642.676 285.94 642.077 289.229 641.445 292.506L640.953 292.411L640.463 292.316C641.094 289.046 641.691 285.765 642.255 282.474ZM645.229 262.661L645.724 262.724L646.221 262.788C645.793 266.108 645.331 269.42 644.836 272.722L643.847 272.573C644.341 269.278 644.802 265.973 645.229 262.661ZM647.374 242.738L648.37 242.824C648.081 246.161 647.757 249.492 647.399 252.814L646.902 252.761L646.405 252.707C646.762 249.392 647.085 246.069 647.374 242.738ZM648.688 222.74L649.188 222.762L649.687 222.784C649.537 226.135 649.352 229.48 649.132 232.818L648.634 232.784L648.135 232.752C648.354 229.421 648.538 226.084 648.688 222.74ZM649.172 202.705L649.672 202.707L650.172 202.709C650.161 206.066 650.114 209.419 650.033 212.765L649.534 212.752L649.034 212.741C649.114 209.402 649.161 206.056 649.172 202.705ZM648.828 182.683L649.327 182.664L649.827 182.645C649.953 185.998 650.046 189.346 650.103 192.689L649.103 192.706C649.046 189.37 648.954 186.029 648.828 182.683ZM647.659 162.69L648.656 162.611C648.92 165.952 649.15 169.29 649.345 172.624L648.845 172.652L648.346 172.681C648.152 169.355 647.922 166.024 647.659 162.69ZM645.672 142.758L646.664 142.639C647.064 145.962 647.43 149.283 647.761 152.6L646.766 152.7C646.436 149.389 646.071 146.075 645.672 142.758ZM642.874 122.92L643.86 122.76C644.395 126.062 644.895 129.363 645.361 132.661L644.865 132.732L644.37 132.801C643.905 129.51 643.407 126.216 642.874 122.92ZM640.243 108.094L641.224 107.905C641.543 109.556 641.854 111.207 642.155 112.858L641.172 113.038C640.871 111.39 640.561 109.742 640.243 108.094Z" fill="#7D5C3F"/>
<path d="M2234 891.5C2243.55 891.5 2252.41 894.513 2259.66 899.638C2259.84 899.77 2259.92 900.014 2259.83 900.228C2259.75 900.442 2259.53 900.572 2259.3 900.542C2236.62 897.604 2218.09 915.874 2218.09 935.646L2218.11 936.587C2218.68 956.311 2237.22 974.182 2260.4 970.56C2260.57 970.532 2260.75 970.599 2260.86 970.733C2260.97 970.868 2261.01 971.053 2260.95 971.219L2260.9 971.342C2260.87 971.435 2260.81 971.517 2260.73 971.576C2253.29 977.178 2244.03 980.5 2234 980.5C2209.42 980.5 2189.5 960.577 2189.5 936C2189.5 911.423 2209.42 891.5 2234 891.5Z" stroke="black" stroke-linejoin="round"/>
<path d="M1970.31 837.176L1967.19 843.382L1964.07 837.176L1967.19 835.601L1970.31 837.176Z" fill="#7D5C3F"/>
<path d="M1961.1 832.281L1962.14 836.264L1956.2 837.176L1957.12 831.238L1961.1 832.281Z" fill="#7D5C3F"/>
<path d="M1978.17 837.176L1972.23 836.265L1973.27 832.281L1977.26 831.237L1978.17 837.176Z" fill="#7D5C3F"/>
<path d="M1971.59 831.774L1970.7 835.523L1967.19 833.757L1967.19 833.756L1963.67 835.522L1962.78 831.774L1967.19 827.734L1971.59 831.774Z" fill="#7D5C3F"/>
<path d="M1965.65 826.193L1961.61 830.6L1957.86 829.708L1959.62 826.193L1957.86 822.679L1961.61 821.787L1965.65 826.193Z" fill="#7D5C3F"/>
<path d="M1976.52 822.679L1974.75 826.193L1976.52 829.708L1972.77 830.6L1968.73 826.193L1972.77 821.787L1976.52 822.679Z" fill="#7D5C3F"/>
<path d="M1957.86 826.193L1956.2 829.314L1950 826.193L1956.2 823.073L1957.86 826.193Z" fill="#7D5C3F"/>
<path d="M1984.38 826.193L1978.17 829.314L1976.59 826.193L1978.17 823.073L1984.38 826.193Z" fill="#7D5C3F"/>
<path d="M1971.59 820.613L1967.19 824.65L1962.78 820.613L1963.67 816.865L1967.18 818.63L1970.7 816.864L1971.59 820.613Z" fill="#7D5C3F"/>
<path d="M1977.26 821.15L1973.27 820.106L1972.23 816.121L1978.17 815.211L1977.26 821.15Z" fill="#7D5C3F"/>
<path d="M1962.14 816.122L1961.1 820.106L1957.12 821.149L1956.21 815.211L1962.14 816.122Z" fill="#7D5C3F"/>
<path d="M1970.31 815.211L1967.19 816.786L1964.07 815.211L1967.19 809L1970.31 815.211Z" fill="#7D5C3F"/>
<path d="M2446.31 360.176L2443.19 366.382L2440.07 360.176L2443.19 358.601L2446.31 360.176Z" fill="#7D5C3F"/>
<path d="M2437.1 355.281L2438.14 359.264L2432.2 360.176L2433.12 354.238L2437.1 355.281Z" fill="#7D5C3F"/>
<path d="M2454.17 360.176L2448.23 359.265L2449.27 355.281L2453.26 354.237L2454.17 360.176Z" fill="#7D5C3F"/>
<path d="M2447.59 354.774L2446.7 358.523L2443.19 356.757L2443.19 356.756L2439.67 358.522L2438.78 354.774L2443.19 350.734L2447.59 354.774Z" fill="#7D5C3F"/>
<path d="M2441.65 349.193L2437.61 353.6L2433.86 352.708L2435.62 349.193L2433.86 345.679L2437.61 344.787L2441.65 349.193Z" fill="#7D5C3F"/>
<path d="M2452.52 345.679L2450.75 349.193L2452.52 352.708L2448.77 353.6L2444.73 349.193L2448.77 344.787L2452.52 345.679Z" fill="#7D5C3F"/>
<path d="M2433.86 349.193L2432.2 352.314L2426 349.193L2432.2 346.073L2433.86 349.193Z" fill="#7D5C3F"/>
<path d="M2460.38 349.193L2454.17 352.314L2452.59 349.193L2454.17 346.073L2460.38 349.193Z" fill="#7D5C3F"/>
<path d="M2447.59 343.613L2443.19 347.65L2438.78 343.613L2439.67 339.865L2443.18 341.63L2446.7 339.864L2447.59 343.613Z" fill="#7D5C3F"/>
<path d="M2453.26 344.15L2449.27 343.106L2448.23 339.121L2454.17 338.211L2453.26 344.15Z" fill="#7D5C3F"/>
<path d="M2438.14 339.122L2437.1 343.106L2433.12 344.149L2432.21 338.211L2438.14 339.122Z" fill="#7D5C3F"/>
<path d="M2446.31 338.211L2443.19 339.786L2440.07 338.211L2443.19 332L2446.31 338.211Z" fill="#7D5C3F"/>
<path d="M1697.31 718.176L1694.19 724.382L1691.07 718.176L1694.19 716.601L1697.31 718.176Z" fill="#7D5C3F"/>
<path d="M1688.1 713.281L1689.14 717.264L1683.2 718.176L1684.12 712.238L1688.1 713.281Z" fill="#7D5C3F"/>
<path d="M1705.17 718.176L1699.23 717.265L1700.27 713.281L1704.26 712.237L1705.17 718.176Z" fill="#7D5C3F"/>
<path d="M1698.59 712.774L1697.7 716.523L1694.19 714.757L1694.19 714.756L1690.67 716.522L1689.78 712.774L1694.19 708.734L1698.59 712.774Z" fill="#7D5C3F"/>
<path d="M1692.65 707.193L1688.61 711.6L1684.86 710.708L1686.62 707.193L1684.86 703.679L1688.61 702.787L1692.65 707.193Z" fill="#7D5C3F"/>
<path d="M1703.52 703.679L1701.75 707.193L1703.52 710.708L1699.77 711.6L1695.73 707.193L1699.77 702.787L1703.52 703.679Z" fill="#7D5C3F"/>
<path d="M1684.86 707.193L1683.2 710.314L1677 707.193L1683.2 704.073L1684.86 707.193Z" fill="#7D5C3F"/>
<path d="M1711.38 707.193L1705.17 710.314L1703.59 707.193L1705.17 704.073L1711.38 707.193Z" fill="#7D5C3F"/>
<path d="M1698.59 701.613L1694.19 705.65L1689.78 701.613L1690.67 697.865L1694.18 699.63L1697.7 697.864L1698.59 701.613Z" fill="#7D5C3F"/>
<path d="M1704.26 702.15L1700.27 701.106L1699.23 697.121L1705.17 696.211L1704.26 702.15Z" fill="#7D5C3F"/>
<path d="M1689.14 697.122L1688.1 701.106L1684.12 702.149L1683.21 696.211L1689.14 697.122Z" fill="#7D5C3F"/>
<path d="M1697.31 696.211L1694.19 697.786L1691.07 696.211L1694.19 690L1697.31 696.211Z" fill="#7D5C3F"/>
<path d="M1837.9 955.07L1838.94 959.054L1833 959.965L1833.91 954.027L1837.9 955.07Z" fill="#7D5C3F"/>
<path d="M1854.97 959.965L1849.03 959.055L1850.07 955.07L1854.05 954.026L1854.97 959.965Z" fill="#7D5C3F"/>
<path d="M1848.39 954.563L1847.5 958.312L1843.98 956.546L1843.98 956.545L1840.47 958.312L1839.58 954.564L1843.98 950.523L1848.39 954.563Z" fill="#7D5C3F"/>
<path d="M1842.44 948.983L1838.4 953.39L1834.65 952.497L1836.42 948.983L1834.65 945.468L1838.4 944.576L1842.44 948.983Z" fill="#7D5C3F"/>
<path d="M1853.31 945.468L1851.54 948.983L1853.31 952.497L1849.56 953.389L1845.52 948.983L1849.56 944.576L1853.31 945.468Z" fill="#7D5C3F"/>
<path d="M1848.39 943.402L1843.98 947.439L1839.58 943.402L1840.47 939.654L1843.98 941.419L1847.5 939.653L1848.39 943.402Z" fill="#7D5C3F"/>
<path d="M1854.05 943.939L1850.07 942.895L1849.03 938.911L1854.97 938L1854.05 943.939Z" fill="#7D5C3F"/>
<path d="M1838.94 938.912L1837.9 942.895L1833.91 943.938L1833 938.001L1838.94 938.912Z" fill="#7D5C3F"/>
<path d="M2425.9 793.07L2426.94 797.054L2421 797.965L2421.91 792.027L2425.9 793.07Z" fill="#7D5C3F"/>
<path d="M2442.97 797.965L2437.03 797.055L2438.07 793.07L2442.05 792.026L2442.97 797.965Z" fill="#7D5C3F"/>
<path d="M2436.39 792.563L2435.5 796.312L2431.98 794.546L2431.98 794.545L2428.47 796.312L2427.58 792.564L2431.98 788.523L2436.39 792.563Z" fill="#7D5C3F"/>
<path d="M2430.44 786.983L2426.4 791.39L2422.65 790.497L2424.42 786.983L2422.65 783.468L2426.4 782.576L2430.44 786.983Z" fill="#7D5C3F"/>
<path d="M2441.31 783.468L2439.54 786.983L2441.31 790.497L2437.56 791.389L2433.52 786.983L2437.56 782.576L2441.31 783.468Z" fill="#7D5C3F"/>
<path d="M2436.39 781.402L2431.98 785.439L2427.58 781.402L2428.47 777.654L2431.98 779.419L2435.5 777.653L2436.39 781.402Z" fill="#7D5C3F"/>
<path d="M2442.05 781.939L2438.07 780.895L2437.03 776.911L2442.97 776L2442.05 781.939Z" fill="#7D5C3F"/>
<path d="M2426.94 776.912L2425.9 780.895L2421.91 781.938L2421 776.001L2426.94 776.912Z" fill="#7D5C3F"/>
<path d="M1613.9 804.07L1614.94 808.054L1609 808.965L1609.91 803.027L1613.9 804.07Z" fill="#7D5C3F"/>
<path d="M1630.97 808.965L1625.03 808.055L1626.07 804.07L1630.05 803.026L1630.97 808.965Z" fill="#7D5C3F"/>
<path d="M1624.39 803.563L1623.5 807.312L1619.98 805.546L1619.98 805.545L1616.47 807.312L1615.58 803.564L1619.98 799.523L1624.39 803.563Z" fill="#7D5C3F"/>
<path d="M1618.44 797.983L1614.4 802.39L1610.65 801.497L1612.42 797.983L1610.65 794.468L1614.4 793.576L1618.44 797.983Z" fill="#7D5C3F"/>
<path d="M1629.31 794.468L1627.54 797.983L1629.31 801.497L1625.56 802.389L1621.52 797.983L1625.56 793.576L1629.31 794.468Z" fill="#7D5C3F"/>
<path d="M1624.39 792.402L1619.98 796.439L1615.58 792.402L1616.47 788.654L1619.98 790.419L1623.5 788.653L1624.39 792.402Z" fill="#7D5C3F"/>
<path d="M1630.05 792.939L1626.07 791.895L1625.03 787.911L1630.97 787L1630.05 792.939Z" fill="#7D5C3F"/>
<path d="M1614.94 787.912L1613.9 791.895L1609.91 792.938L1609 787.001L1614.94 787.912Z" fill="#7D5C3F"/>
<path d="M2093.74 857.91L2092.84 861.659L2089.33 859.893L2089.33 859.892L2085.81 861.658L2084.92 857.91L2089.33 853.87L2093.74 857.91Z" fill="#7D5C3F"/>
<path d="M2087.79 852.329L2083.75 856.736L2080 855.844L2081.77 852.329L2080 848.815L2083.75 847.922L2087.79 852.329Z" fill="#7D5C3F"/>
<path d="M2098.66 848.815L2096.89 852.329L2098.66 855.844L2094.91 856.736L2090.87 852.329L2094.91 847.923L2098.66 848.815Z" fill="#7D5C3F"/>
<path d="M2093.74 846.748L2089.33 850.786L2084.92 846.748L2085.81 843.001L2089.33 844.766L2092.84 843L2093.74 846.748Z" fill="#7D5C3F"/>
<path d="M1618.74 594.91L1617.84 598.659L1614.33 596.893L1614.33 596.892L1610.81 598.658L1609.92 594.91L1614.33 590.87L1618.74 594.91Z" fill="#7D5C3F"/>
<path d="M1612.79 589.329L1608.75 593.736L1605 592.844L1606.77 589.329L1605 585.815L1608.75 584.922L1612.79 589.329Z" fill="#7D5C3F"/>
<path d="M1623.66 585.815L1621.89 589.329L1623.66 592.844L1619.91 593.736L1615.87 589.329L1619.91 584.923L1623.66 585.815Z" fill="#7D5C3F"/>
<path d="M1618.74 583.748L1614.33 587.786L1609.92 583.748L1610.81 580.001L1614.33 581.766L1617.84 580L1618.74 583.748Z" fill="#7D5C3F"/>
<path fill-rule="evenodd" clip-rule="evenodd" d="M2377.78 531.774L2386.77 528.987L2363.94 552.676L2371.55 548.965L2352.17 574.223C2348.02 578.901 2344.47 583 2337.99 583C2328.05 583 2320 574.877 2320 564.856C2320 558.256 2325.12 552.581 2329.86 549.44L2352.18 533.434L2348.71 541.529L2369.47 523.414L2364.63 535.258L2421 483L2377.78 531.774ZM2336.35 557.849C2331.62 557.849 2327.78 561.689 2327.78 566.426C2327.78 571.162 2331.62 575.002 2336.35 575.002C2341.08 575.002 2344.91 571.162 2344.91 566.426C2344.91 561.689 2341.08 557.849 2336.35 557.849Z" fill="#7D5C3F"/>
<circle cx="2058" cy="971" r="6" fill="#7D5C3F"/>
<circle cx="2191" cy="703" r="6" fill="#7D5C3F"/>
<path d="M1616 939L1623.56 959.437L1644 967L1623.56 974.563L1616 995L1608.44 974.563L1588 967L1608.44 959.437L1616 939Z" fill="#7D5C3F"/>
<path d="M1619 935.997L1634.5 920.497M1640.5 914.5L1669.5 885.5" stroke="#7D5C3F" stroke-linecap="round"/>
<path d="M1628 955.497L1643.5 939.997M1649.5 934L1703 880.5" stroke="#7D5C3F" stroke-linecap="round"/>
<path d="M1645 964.497L1660.5 948.997M1666.5 943L1706.5 903" stroke="#7D5C3F" stroke-linecap="round"/>
<path d="M2163.21 1031.57L2162.71 1032.43L1797.25 821.433L1797.75 820.567L2163.21 1031.57ZM2381.45 1031.75L2380.59 1032.25L2093.07 534.25L2093.93 533.75L2381.45 1031.75Z" fill="#7D5C3F"/>
<path d="M2013.79 738.116C2219.92 693.387 2424.34 824.102 2478.89 1031.87L2477.92 1032.12C2423.51 824.847 2219.58 694.483 2014 739.094C1863.79 771.69 1753.1 888.936 1718.57 1032.12L1717.6 1031.88C1752.21 888.354 1863.18 770.8 2013.79 738.116Z" fill="#7D5C3F"/>
<path d="M2343.89 744.38C2190.19 790.783 2076.64 902.365 2032.28 1032.16L2031.33 1031.84C2075.8 901.718 2189.61 789.913 2343.6 743.423C2393.02 728.505 2442.71 721.479 2491.01 721.583L2491 722.583C2442.8 722.479 2393.21 729.491 2343.89 744.38Z" fill="#7D5C3F"/>
<path d="M2313.33 652.804C2107.9 714.822 1961.8 867.608 1929.52 1032.1L1928.54 1031.9C1960.9 866.982 2107.33 713.949 2313.04 651.847C2373.02 633.738 2433.08 624.858 2491 624.326L2491.01 624.827L2491.01 625.326C2433.18 625.857 2373.22 634.723 2313.33 652.804Z" fill="#7D5C3F"/>
<path d="M2262.94 462.521C1970.61 550.774 1765.15 779.277 1719.06 1032.09L1718.08 1031.91C1764.24 778.692 1970 549.914 2262.65 461.563C2339.15 438.47 2416 426.653 2490.99 425.106L2491 425.605L2491.02 426.106C2416.11 427.652 2339.35 439.454 2262.94 462.521Z" fill="#7D5C3F"/>
<path d="M478.051 107.972C489.972 298.637 372.903 471.468 194.957 510.083C127.993 524.614 60.9899 518.273 -0.169988 495.199L0.00647721 494.732L0.182735 494.264C61.1718 517.273 127.979 523.594 194.745 509.105C372.142 470.61 488.948 298.277 477.053 108.035L478.051 107.972Z" fill="#7D5C3F"/>
<path d="M445 474.5C445 472.015 442.985 470 440.5 470C438.015 470 436 472.015 436 474.5C436 476.985 438.015 479 440.5 479C442.985 479 445 476.985 445 474.5ZM447 474.5C447 478.09 444.09 481 440.5 481C436.91 481 434 478.09 434 474.5C434 470.91 436.91 468 440.5 468C444.09 468 447 470.91 447 474.5Z" fill="#7D5C3F"/>
</g>
<defs>
<clipPath id="clip0_669_738">
<rect width="2491" height="1032" fill="white"/>
</clipPath>
</defs>
</svg>
