<svg width="14369" height="3774" viewBox="0 0 14369 3774" fill="none" xmlns="http://www.w3.org/2000/svg">
<g clip-path="url(#clip0_681_2)">
<path fill-rule="evenodd" clip-rule="evenodd" d="M3672.56 2337.69C3662.3 2421.85 3632.5 2503.79 3593.94 2574.59C3485.62 2023.12 3349.95 1789.72 2413.61 1789.72H1904.52C1742.27 1789.72 1610.75 1921.23 1610.75 2083.47C1610.75 2245.7 1742.27 2377.21 1904.52 2377.21H2413.61C2795.7 2377.21 3105.45 2686.94 3105.45 3069.01C3105.45 3451.08 2795.7 3760.81 2413.61 3760.81C2095.4 3777.59 1902.58 3779.19 1564.76 3760.81C445.608 3760.81 -300.801 2516.61 117.954 1524.81C353.503 878.037 994.989 402.166 1787.19 402.166C1710.18 197.612 1551.55 53.9426 861.842 35.1413C993.728 12.0438 1129.42 0 1267.93 0C1972.62 0 2604.49 311.759 3033.12 804.867H1787.19C1080.83 804.867 508.229 1377.44 508.229 2083.73C508.229 2790.03 1080.83 3362.6 1787.19 3362.6H2296.55C2458.79 3362.6 2590.32 3231.09 2590.32 3068.86C2590.32 2906.62 2458.79 2775.11 2296.55 2775.11H1787.19C1405.33 2775.11 1095.77 2465.57 1095.77 2083.73C1095.77 1701.9 1405.33 1392.36 1787.19 1392.36H2711.39C3134.13 1392.36 3622.97 1640.75 3672.56 2060.54C3683.3 2151.43 3684.31 2241.33 3672.56 2337.69Z" fill="url(#paint0_linear_681_2)"/>
<path d="M13964.2 1984.15C13898.5 1984.15 13842.8 1977.48 13797.1 1964.14C13752.3 1949.85 13713.7 1929.37 13681.3 1902.69C13648.9 1876.02 13616 1840.77 13582.7 1796.95L13697 1701.2C13736.1 1755.51 13775.1 1794.09 13814.2 1816.95C13854.2 1839.82 13903.8 1851.25 13962.8 1851.25C14042.8 1851.25 14102.4 1838.39 14141.4 1812.67C14180.5 1786.94 14200 1747.41 14200 1694.06C14200 1664.53 14191.5 1640.71 14174.3 1622.61C14158.1 1603.55 14129.1 1587.36 14087.1 1574.02C14046.2 1559.73 13984.7 1544.01 13902.8 1526.86C13809.4 1507.81 13739.9 1474.47 13694.2 1426.83C13648.4 1379.2 13625.6 1315.85 13625.6 1236.78C13625.6 1178.66 13640.3 1128.17 13669.9 1085.3C13699.4 1041.48 13741.3 1008.14 13795.6 985.272C13849.9 961.455 13913.8 949.547 13987.1 949.547C14076.7 949.547 14149.5 963.361 14205.7 990.988C14262.9 1018.62 14308.2 1059.58 14341.5 1113.88L14230 1205.34C14192.9 1162.47 14156.2 1131.51 14120 1112.45C14084.8 1092.45 14040 1082.44 13985.7 1082.44C13924.7 1082.44 13877.6 1096.26 13844.2 1123.89C13810.9 1150.56 13794.2 1188.67 13794.2 1238.21C13794.2 1282.98 13812.8 1317.28 13849.9 1341.09C13887.1 1363.96 13938.5 1382.54 14004.3 1396.83C14089 1413.97 14156.7 1433.03 14207.2 1453.99C14257.7 1473.99 14297.2 1503.05 14325.8 1541.15C14354.4 1579.26 14368.7 1630.23 14368.7 1694.06C14368.7 1887.45 14233.9 1984.15 13964.2 1984.15Z" fill="#7D5C3F"/>
<path d="M13362.1 858.094C13392.6 858.094 13416.4 868.573 13433.6 889.532C13451.7 910.491 13460.7 940.023 13460.7 978.13C13460.7 1029.57 13449.3 1075.3 13426.4 1115.31C13404.5 1155.33 13371.7 1194.39 13327.8 1232.49L13280.7 1186.76C13308.3 1162.95 13329.3 1140.08 13343.6 1118.17C13357.8 1095.31 13366.9 1071.02 13370.7 1045.29C13361.2 1050.06 13347.4 1052.44 13329.3 1052.44C13307.4 1052.44 13290.2 1045.29 13277.8 1031C13265.4 1015.76 13259.2 995.278 13259.2 969.556C13259.2 941.929 13269.2 916.683 13289.3 893.819C13309.3 870.002 13333.6 858.094 13362.1 858.094Z" fill="#7D5C3F"/>
<path d="M13025.4 1704.06H12615.3L12536.7 1967H12368.1L12618.2 1156.75C12634.4 1103.4 12651 1061.96 12668.2 1032.43C12686.3 1002.9 12707.3 981.938 12731.1 969.553C12754.9 956.216 12784.9 949.547 12821.1 949.547C12856.3 949.547 12885.9 956.216 12909.7 969.553C12933.5 981.938 12954.5 1002.9 12972.6 1032.43C12990.7 1061.96 13007.8 1103.4 13024 1156.75L13272.7 1967H13104L13025.4 1704.06ZM12988.3 1578.31L12864 1159.61C12858.2 1140.56 12852.1 1126.74 12845.4 1118.17C12839.7 1109.6 12831.6 1105.31 12821.1 1105.31C12810.6 1105.31 12802 1109.6 12795.4 1118.17C12788.7 1126.74 12782.5 1140.56 12776.8 1159.61L12652.5 1578.31H12988.3Z" fill="#7D5C3F"/>
<path d="M11935.8 1359.67C11980.6 1369.2 12017.3 1384.44 12045.8 1405.4C12074.4 1426.36 12098.7 1454.94 12118.7 1491.14C12139.7 1527.34 12160.6 1575.45 12181.6 1635.47L12291.6 1967H12121.6L12015.8 1651.19C12002.5 1611.18 11989.1 1580.21 11975.8 1558.3C11962.5 1536.39 11944.4 1518.77 11921.5 1505.43C11898.6 1492.09 11866.7 1483.04 11825.8 1478.28L11648.6 1671.19V1967H11479.9V966.695H11648.6V1462.56L12097.3 966.695H12298.8L11935.8 1359.67Z" fill="#7D5C3F"/>
<path d="M10891.3 1984.15C10825.6 1984.15 10769.9 1977.48 10724.1 1964.14C10679.4 1949.85 10640.8 1929.37 10608.4 1902.69C10576 1876.02 10543.1 1840.77 10509.8 1796.95L10624.1 1701.2C10663.2 1755.51 10702.2 1794.09 10741.3 1816.95C10781.3 1839.82 10830.8 1851.25 10889.9 1851.25C10969.9 1851.25 11029.5 1838.39 11068.5 1812.67C11107.6 1786.94 11127.1 1747.41 11127.1 1694.06C11127.1 1664.53 11118.5 1640.71 11101.4 1622.61C11085.2 1603.55 11056.1 1587.36 11014.2 1574.02C10973.3 1559.73 10911.8 1544.01 10829.9 1526.86C10736.5 1507.81 10667 1474.47 10621.2 1426.83C10575.5 1379.2 10552.7 1315.85 10552.7 1236.78C10552.7 1178.66 10567.4 1128.17 10597 1085.3C10626.5 1041.48 10668.4 1008.14 10722.7 985.272C10777 961.455 10840.8 949.547 10914.2 949.547C11003.7 949.547 11076.6 963.361 11132.8 990.988C11190 1018.62 11235.2 1059.58 11268.6 1113.88L11157.1 1205.34C11120 1162.47 11083.3 1131.51 11047.1 1112.45C11011.8 1092.45 10967.1 1082.44 10912.8 1082.44C10851.8 1082.44 10804.6 1096.26 10771.3 1123.89C10737.9 1150.56 10721.3 1188.67 10721.3 1238.21C10721.3 1282.98 10739.9 1317.28 10777 1341.09C10814.2 1363.96 10865.6 1382.54 10931.3 1396.83C11016.1 1413.97 11083.8 1433.03 11134.3 1453.99C11184.7 1473.99 11224.3 1503.05 11252.9 1541.15C11281.4 1579.26 11295.7 1630.23 11295.7 1694.06C11295.7 1887.45 11160.9 1984.15 10891.3 1984.15Z" fill="#7D5C3F"/>
<path d="M9992.62 1984.15C9926.89 1984.15 9871.16 1977.48 9825.43 1964.14C9780.65 1949.85 9742.07 1929.37 9709.68 1902.69C9677.29 1876.02 9644.42 1840.77 9611.08 1796.95L9725.4 1701.2C9764.46 1755.51 9803.52 1794.09 9842.58 1816.95C9882.59 1839.82 9932.13 1851.25 9991.19 1851.25C10071.2 1851.25 10130.8 1838.39 10169.8 1812.67C10208.9 1786.94 10228.4 1747.41 10228.4 1694.06C10228.4 1664.53 10219.8 1640.71 10202.7 1622.61C10186.5 1603.55 10157.4 1587.36 10115.5 1574.02C10074.6 1559.73 10013.1 1544.01 9931.17 1526.86C9837.81 1507.81 9768.27 1474.47 9722.54 1426.83C9676.81 1379.2 9653.95 1315.85 9653.95 1236.78C9653.95 1178.66 9668.71 1128.17 9698.25 1085.3C9727.78 1041.48 9769.7 1008.14 9824 985.272C9878.3 961.455 9942.13 949.547 10015.5 949.547C10105 949.547 10177.9 963.361 10234.1 990.988C10291.3 1018.62 10336.5 1059.58 10369.9 1113.88L10258.4 1205.34C10221.3 1162.47 10184.6 1131.51 10148.4 1112.45C10113.1 1092.45 10068.4 1082.44 10014.1 1082.44C9953.09 1082.44 9905.93 1096.26 9872.59 1123.89C9839.24 1150.56 9822.57 1188.67 9822.57 1238.21C9822.57 1282.98 9841.15 1317.28 9878.3 1341.09C9915.46 1363.96 9966.9 1382.54 10032.6 1396.83C10117.4 1413.97 10185.1 1433.03 10235.6 1453.99C10286 1473.99 10325.6 1503.05 10354.2 1541.15C10382.7 1579.26 10397 1630.23 10397 1694.06C10397 1887.45 10262.2 1984.15 9992.62 1984.15Z" fill="#7D5C3F"/>
<path d="M9159.29 1967C9038.31 1967 8950.18 1941.28 8894.93 1889.83C8839.67 1837.44 8812.05 1760.75 8812.05 1659.76V1273.93C8812.05 1172.95 8839.67 1096.73 8894.93 1045.29C8950.18 992.894 9038.31 966.695 9159.29 966.695H9496.54V1099.59H9159.29C9098.32 1099.59 9053.07 1113.88 9023.54 1142.46C8994.96 1170.09 8980.67 1213.91 8980.67 1273.93V1401.11H9430.81V1532.58H8980.67V1659.76C8980.67 1719.78 8994.96 1764.08 9023.54 1792.66C9053.07 1820.29 9098.32 1834.1 9159.29 1834.1H9502.26V1967H9159.29Z" fill="#7D5C3F"/>
<path d="M8624.08 966.695V1759.79C8624.08 1828.38 8609.79 1880.31 8581.21 1915.55C8553.59 1949.85 8509.29 1967 8448.32 1967H8329.71L7976.74 1231.06V1967H7818.12V966.695H8011.04L8418.31 1822.67H8425.45C8440.69 1822.67 8451.17 1816.48 8456.89 1804.09C8462.61 1790.75 8465.46 1767.89 8465.46 1735.5V966.695H8624.08Z" fill="#7D5C3F"/>
<path d="M7206.99 1984.15C7076.47 1984.15 6976.44 1953.18 6906.9 1891.26C6837.35 1829.34 6802.58 1738.83 6802.58 1619.75V1313.94C6802.58 1194.86 6837.35 1104.36 6906.9 1042.43C6976.44 980.509 7076.47 949.547 7206.99 949.547C7337.5 949.547 7437.06 980.509 7505.65 1042.43C7575.19 1104.36 7609.97 1194.86 7609.97 1313.94V1619.75C7609.97 1738.83 7575.19 1829.34 7505.65 1891.26C7437.06 1953.18 7337.5 1984.15 7206.99 1984.15ZM7206.99 1851.25C7282.25 1851.25 7339.88 1831.72 7379.9 1792.66C7420.86 1752.65 7441.34 1695.01 7441.34 1619.75V1313.94C7441.34 1238.68 7420.86 1181.52 7379.9 1142.46C7339.88 1102.45 7282.25 1082.44 7206.99 1082.44C7130.77 1082.44 7072.18 1102.45 7031.22 1142.46C6991.21 1181.52 6971.2 1238.68 6971.2 1313.94V1619.75C6971.2 1695.01 6991.21 1752.65 7031.22 1792.66C7072.18 1831.72 7130.77 1851.25 7206.99 1851.25Z" fill="#7D5C3F"/>
<path d="M5659.27 966.695H5749.29C5794.07 966.695 5830.27 972.888 5857.9 985.272C5885.52 997.657 5909.82 1017.19 5930.78 1043.86C5951.74 1070.54 5975.08 1109.6 6000.8 1161.04L6126.55 1408.26L6252.3 1161.04C6278.02 1109.6 6301.36 1070.54 6322.32 1043.86C6343.28 1017.19 6367.58 997.657 6395.2 985.272C6422.83 972.888 6459.03 966.695 6503.81 966.695H6593.83V1967H6439.5V1141.03C6427.12 1141.99 6416.16 1147.7 6406.63 1158.18C6398.06 1167.71 6387.58 1184.38 6375.2 1208.2L6126.55 1671.19L5877.9 1208.2C5864.57 1183.43 5853.61 1166.28 5845.04 1156.75C5836.46 1146.27 5825.98 1140.56 5813.6 1139.6V1967H5659.27V966.695Z" fill="#7D5C3F"/>
<path d="M5237.82 966.695H5406.44V1967H5237.82V966.695Z" fill="#7D5C3F"/>
<path d="M4750.84 1967C4632.71 1967 4546.97 1941.28 4493.62 1889.83C4441.22 1837.44 4415.02 1760.75 4415.02 1659.76V966.695H4583.65V1659.76C4583.65 1719.78 4596.98 1764.08 4623.66 1792.66C4651.29 1820.29 4693.68 1834.1 4750.84 1834.1H5070.94V1967H4750.84Z" fill="#7D5C3F"/>
<path d="M11145.8 3094.14C11068.6 3094.14 11009.4 3075.83 10968.3 3039.2C10927.1 3002.57 10906.6 2949.04 10906.6 2878.6V2697.72C10906.6 2627.28 10927.1 2573.75 10968.3 2537.12C11009.4 2500.49 11068.6 2482.18 11145.8 2482.18C11223 2482.18 11281.8 2500.49 11322.4 2537.12C11363.6 2573.75 11384.1 2627.28 11384.1 2697.72V2878.6C11384.1 2949.04 11363.6 3002.57 11322.4 3039.2C11281.8 3075.83 11223 3094.14 11145.8 3094.14ZM11145.8 3015.53C11190.3 3015.53 11224.4 3003.98 11248 2980.88C11272.3 2957.21 11284.4 2923.12 11284.4 2878.6V2697.72C11284.4 2653.2 11272.3 2619.39 11248 2596.29C11224.4 2572.62 11190.3 2560.79 11145.8 2560.79C11100.7 2560.79 11066 2572.62 11041.8 2596.29C11018.1 2619.39 11006.3 2653.2 11006.3 2697.72V2878.6C11006.3 2923.12 11018.1 2957.21 11041.8 2980.88C11066 3003.98 11100.7 3015.53 11145.8 3015.53Z" fill="#7D5C3F"/>
<path d="M10682.6 2492.33H10782.4V3084H10682.6V2492.33Z" fill="#7D5C3F"/>
<path d="M10084.2 2492.33H10301.4C10366.2 2492.33 10417.5 2501.91 10455.3 2521.07C10493 2540.23 10520.3 2571.22 10537.2 2614.04C10554.1 2656.31 10562.6 2714.35 10562.6 2788.17C10562.6 2861.98 10554.1 2920.31 10537.2 2963.13C10520.3 3005.4 10493 3036.11 10455.3 3055.27C10417.5 3074.42 10366.2 3084 10301.4 3084H10084.2V2492.33ZM10301.4 3005.4C10341.4 3005.4 10373 2998.35 10396.1 2984.26C10419.8 2970.18 10436.7 2947.64 10446.8 2916.64C10457.5 2885.09 10462.9 2842.26 10462.9 2788.17C10462.9 2734.07 10457.5 2691.53 10446.8 2660.53C10436.7 2628.98 10419.8 2606.16 10396.1 2592.07C10373 2577.98 10341.4 2570.94 10301.4 2570.94H10183.9V3005.4H10301.4Z" fill="#7D5C3F"/>
<path d="M9725.08 3094.15C9650.7 3094.15 9593.5 3078.37 9553.5 3046.81C9514.05 3014.69 9494.33 2970.18 9494.33 2913.26V2492.33H9594.07V2913.26C9594.07 2947.07 9605.06 2972.71 9627.03 2990.18C9649.57 3007.65 9682.26 3016.38 9725.08 3016.38C9767.91 3016.38 9800.31 3007.65 9822.29 2990.18C9844.83 2972.71 9856.1 2947.07 9856.1 2913.26V2492.33H9955.83V2913.26C9955.83 2970.18 9935.83 3014.69 9895.82 3046.81C9856.38 3078.37 9799.46 3094.15 9725.08 3094.15Z" fill="#7D5C3F"/>
<path d="M9139.59 2570.94H8956.17V2492.33H9421.9V2570.94H9239.33V3084H9139.59V2570.94Z" fill="#7D5C3F"/>
<path d="M8679.46 3094.14C8640.58 3094.14 8607.62 3090.2 8580.57 3082.31C8554.08 3073.86 8531.26 3061.74 8512.1 3045.96C8492.94 3030.18 8473.5 3009.33 8453.78 2983.41L8521.4 2926.78C8544.5 2958.9 8567.61 2981.72 8590.71 2995.25C8614.38 3008.77 8643.68 3015.53 8678.62 3015.53C8725.95 3015.53 8761.17 3007.93 8784.27 2992.71C8807.38 2977.5 8818.93 2954.11 8818.93 2922.56C8818.93 2905.09 8813.86 2891 8803.71 2880.29C8794.14 2869.02 8776.95 2859.44 8752.15 2851.55C8727.92 2843.1 8691.58 2833.8 8643.12 2823.66C8587.89 2812.39 8546.76 2792.67 8519.71 2764.49C8492.66 2736.32 8479.14 2698.85 8479.14 2652.08C8479.14 2617.7 8487.87 2587.84 8505.34 2562.48C8522.81 2536.56 8547.6 2516.83 8579.72 2503.31C8611.84 2489.22 8649.6 2482.18 8692.99 2482.18C8745.96 2482.18 8789.06 2490.35 8822.31 2506.69C8856.12 2523.03 8882.89 2547.26 8902.61 2579.38L8836.68 2633.48C8814.7 2608.12 8793.01 2589.81 8771.6 2578.54C8750.75 2566.7 8724.26 2560.79 8692.14 2560.79C8656.08 2560.79 8628.18 2568.96 8608.46 2585.3C8588.74 2601.08 8578.88 2623.62 8578.88 2652.92C8578.88 2679.4 8589.87 2699.69 8611.84 2713.78C8633.82 2727.3 8664.25 2738.29 8703.13 2746.74C8753.28 2756.89 8793.29 2768.16 8823.16 2780.55C8853.02 2792.39 8876.41 2809.57 8893.31 2832.11C8910.22 2854.65 8918.67 2884.8 8918.67 2922.56C8918.67 3036.95 8838.93 3094.14 8679.46 3094.14Z" fill="#7D5C3F"/>
<path d="M7959.56 3084C7888 3084 7835.87 3068.79 7803.19 3038.36C7770.51 3007.37 7754.16 2962.01 7754.16 2902.27V2674.06C7754.16 2614.33 7770.51 2569.25 7803.19 2538.82C7835.87 2507.82 7888 2492.33 7959.56 2492.33H8159.04V2570.94H7959.56C7923.5 2570.94 7896.73 2579.39 7879.26 2596.29C7862.36 2612.64 7853.9 2638.56 7853.9 2674.06V2749.28H8120.16V2827.05H7853.9V2902.27C7853.9 2937.78 7862.36 2963.98 7879.26 2980.88C7896.73 2997.22 7923.5 3005.4 7959.56 3005.4H8162.42V3084H7959.56Z" fill="#7D5C3F"/>
<path d="M7444.29 3094.15C7413.3 3094.15 7388.79 3085.13 7370.75 3067.1C7353.29 3049.07 7337.79 3017.23 7324.26 2971.59L7183.95 2492.33H7283.69L7418.93 2969.89C7422.31 2981.16 7425.69 2989.34 7429.08 2994.41C7433.02 2999.48 7438.09 3002.01 7444.29 3002.01C7449.93 3002.01 7454.72 2999.48 7458.66 2994.41C7462.6 2989.34 7465.99 2981.16 7468.8 2969.89L7604.04 2492.33H7703.78L7563.47 2971.59C7549.95 3017.23 7534.17 3049.07 7516.14 3067.1C7498.67 3085.13 7474.72 3094.15 7444.29 3094.15Z" fill="#7D5C3F"/>
<path d="M6989.61 2492.33H7089.35V3084H6989.61V2492.33Z" fill="#7D5C3F"/>
<path d="M6613.75 2570.94H6430.33V2492.33H6896.06V2570.94H6713.49V3084H6613.75V2570.94Z" fill="#7D5C3F"/>
<path d="M6328.83 2928.47H6086.24L6039.76 3084H5940.02L6087.93 2604.74C6097.51 2573.18 6107.38 2548.67 6117.52 2531.2C6128.22 2513.74 6140.62 2501.34 6154.71 2494.01C6168.8 2486.12 6186.55 2482.18 6207.96 2482.18C6228.81 2482.18 6246.28 2486.12 6260.37 2494.01C6274.45 2501.34 6286.85 2513.74 6297.56 2531.2C6308.26 2548.67 6318.41 2573.18 6327.99 2604.74L6475.06 3084H6375.32L6328.83 2928.47ZM6306.85 2854.09L6233.32 2606.43C6229.94 2595.16 6226.27 2586.99 6222.33 2581.92C6218.95 2576.85 6214.16 2574.31 6207.96 2574.31C6201.76 2574.31 6196.69 2576.85 6192.75 2581.92C6188.8 2586.99 6185.14 2595.16 6181.76 2606.43L6108.22 2854.09H6306.85Z" fill="#7D5C3F"/>
<path d="M5685.47 3084C5613.91 3084 5561.79 3068.79 5529.1 3038.36C5496.42 3007.37 5480.08 2962.01 5480.08 2902.27V2674.06C5480.08 2614.33 5496.42 2569.25 5529.1 2538.82C5561.79 2507.82 5613.91 2492.33 5685.47 2492.33H5884.95V2570.94H5685.47C5649.41 2570.94 5622.64 2579.39 5605.18 2596.29C5588.27 2612.64 5579.82 2638.56 5579.82 2674.06V2749.28H5846.07V2827.05H5579.82V2902.27C5579.82 2937.78 5588.27 2963.98 5605.18 2980.88C5622.64 2997.22 5649.41 3005.4 5685.47 3005.4H5888.33V3084H5685.47Z" fill="#7D5C3F"/>
<path d="M5404.19 3084H5298.53L5258.81 2946.23C5250.92 2918.62 5242.75 2897.2 5234.3 2881.99C5225.84 2866.21 5214.01 2854.38 5198.79 2846.49C5184.14 2838.6 5164.14 2834.65 5138.78 2834.65H5035.66V3084H4935.92V2492.33H5180.2C5246.69 2492.33 5296.28 2506.42 5328.96 2534.59C5361.65 2562.77 5377.99 2605.31 5377.99 2662.22C5377.99 2702.23 5367.84 2734.35 5347.56 2758.58C5327.27 2782.81 5298.82 2798.03 5262.19 2804.23C5289.8 2813.81 5310.93 2830.15 5325.58 2853.25C5340.23 2876.35 5353.19 2907.35 5364.46 2946.23L5404.19 3084ZM5180.2 2756.05C5209.5 2756.05 5233.17 2748.16 5251.2 2732.38C5269.23 2716.6 5278.25 2693.78 5278.25 2663.91C5278.25 2633.48 5269.23 2610.38 5251.2 2594.6C5233.17 2578.83 5209.5 2570.94 5180.2 2570.94H5035.66V2756.05H5180.2Z" fill="#7D5C3F"/>
<path d="M4617.46 3094.14C4538.57 3094.14 4478.27 3075.83 4436.57 3039.2C4394.87 3002.57 4374.02 2949.04 4374.02 2878.6V2697.72C4374.02 2627.28 4394.59 2573.75 4435.73 2537.12C4476.86 2500.49 4536.31 2482.18 4614.07 2482.18C4667.61 2482.18 4711.84 2490.91 4746.78 2508.38C4781.72 2525.85 4809.89 2552.34 4831.3 2587.84L4760.3 2637.71C4742.27 2610.66 4722.27 2591.22 4700.29 2579.38C4678.88 2566.99 4650.42 2560.79 4614.92 2560.79C4520.82 2560.79 4473.76 2606.43 4473.76 2697.72V2878.6C4473.76 2969.89 4521.38 3015.53 4616.61 3015.53C4654.36 3015.53 4684.79 3009.05 4707.9 2996.09C4731 2983.13 4751.01 2962.85 4767.91 2935.23L4838.91 2987.64C4812.43 3024.83 4782.56 3051.88 4749.31 3068.78C4716.07 3085.69 4672.12 3094.14 4617.46 3094.14Z" fill="#7D5C3F"/>
</g>
<defs>
<linearGradient id="paint0_linear_681_2" x1="1840.5" y1="0" x2="1840.5" y2="3774" gradientUnits="userSpaceOnUse">
<stop stop-color="#4A2F17"/>
<stop offset="1" stop-color="#F1C198"/>
</linearGradient>
<clipPath id="clip0_681_2">
<rect width="14369" height="3774" fill="white"/>
</clipPath>
</defs>
</svg>
