<svg width="13258" height="3774" viewBox="0 0 13258 3774" fill="none" xmlns="http://www.w3.org/2000/svg">
<path fill-rule="evenodd" clip-rule="evenodd" d="M3672.56 2337.69C3662.3 2421.85 3632.5 2503.79 3593.94 2574.59C3485.62 2023.12 3349.95 1789.72 2413.61 1789.72H1904.52C1742.27 1789.72 1610.75 1921.23 1610.75 2083.47C1610.75 2245.7 1742.27 2377.21 1904.52 2377.21H2413.61C2795.7 2377.21 3105.45 2686.94 3105.45 3069.01C3105.45 3451.08 2795.7 3760.81 2413.61 3760.81C2095.4 3777.59 1902.58 3779.19 1564.76 3760.81C445.608 3760.81 -300.801 2516.61 117.954 1524.81C353.503 878.037 994.989 402.166 1787.19 402.166C1710.18 197.612 1551.55 53.9426 861.842 35.1413C993.728 12.0438 1129.42 0 1267.93 0C1972.62 0 2604.49 311.759 3033.12 804.867H1787.19C1080.83 804.867 508.229 1377.44 508.229 2083.73C508.229 2790.03 1080.83 3362.6 1787.19 3362.6H2296.55C2458.79 3362.6 2590.32 3231.09 2590.32 3068.86C2590.32 2906.62 2458.79 2775.11 2296.55 2775.11H1787.19C1405.33 2775.11 1095.77 2465.57 1095.77 2083.73C1095.77 1701.9 1405.33 1392.36 1787.19 1392.36H2711.39C3134.13 1392.36 3622.97 1640.75 3672.56 2060.54C3683.3 2151.43 3684.31 2241.33 3672.56 2337.69Z" fill="url(#paint0_linear_508_6)"/>
<path d="M13011.8 2168.5H12603.4L12525.1 2430.36H12357.1L12606.2 1623.43C12622.3 1570.3 12638.9 1529.03 12656 1499.62C12674 1470.21 12694.9 1449.34 12718.6 1437C12742.3 1423.72 12772.2 1417.08 12808.3 1417.08C12843.4 1417.08 12872.8 1423.72 12896.5 1437C12920.2 1449.34 12941.1 1470.21 12959.1 1499.62C12977.2 1529.03 12994.2 1570.3 13010.4 1623.43L13258 2430.36H13090.1L13011.8 2168.5ZM12974.8 2043.26L12851 1626.28C12845.3 1607.31 12839.1 1593.55 12832.5 1585.01C12826.8 1576.47 12818.7 1572.2 12808.3 1572.2C12797.8 1572.2 12789.3 1576.47 12782.7 1585.01C12776 1593.55 12769.9 1607.31 12764.2 1626.28L12640.4 2043.26H12974.8Z" fill="#7D5C3F"/>
<path d="M11926.6 1825.52C11971.2 1835.01 12007.7 1850.19 12036.2 1871.06C12064.7 1891.94 12088.8 1920.4 12108.8 1956.45C12129.6 1992.5 12150.5 2040.42 12171.4 2100.19L12281 2430.36H12111.6L12006.3 2115.84C11993 2076 11979.7 2045.16 11966.5 2023.34C11953.2 2001.52 11935.1 1983.97 11912.4 1970.68C11889.6 1957.4 11857.8 1948.39 11817 1943.64L11640.6 2135.77V2430.36H11472.6V1434.16H11640.6V1927.99L12087.4 1434.16H12288.1L11926.6 1825.52Z" fill="#7D5C3F"/>
<path d="M10886.4 2447.44C10821 2447.44 10765.5 2440.8 10719.9 2427.51C10675.3 2413.28 10636.9 2392.88 10604.6 2366.32C10572.4 2339.75 10539.6 2304.65 10506.4 2261L10620.3 2165.65C10659.2 2219.73 10698.1 2258.16 10737 2280.93C10776.8 2303.7 10826.2 2315.08 10885 2315.08C10964.7 2315.08 11024 2302.28 11062.9 2276.66C11101.8 2251.04 11121.2 2211.67 11121.2 2158.54C11121.2 2129.13 11112.7 2105.41 11095.6 2087.38C11079.5 2068.41 11050.6 2052.28 11008.8 2038.99C10968 2024.76 10906.8 2009.11 10825.2 1992.03C10732.2 1973.05 10663 1939.85 10617.4 1892.41C10571.9 1844.97 10549.1 1781.88 10549.1 1703.13C10549.1 1645.26 10563.8 1594.97 10593.2 1552.28C10622.7 1508.63 10664.4 1475.43 10718.5 1452.66C10772.6 1428.94 10836.1 1417.08 10909.2 1417.08C10998.4 1417.08 11071 1430.84 11126.9 1458.35C11183.9 1485.86 11228.9 1526.66 11262.1 1580.74L11151.1 1671.82C11114.1 1629.13 11077.6 1598.29 11041.5 1579.32C11006.4 1559.39 10961.8 1549.43 10907.8 1549.43C10847 1549.43 10800.1 1563.19 10766.9 1590.7C10733.7 1617.27 10717.1 1655.22 10717.1 1704.55C10717.1 1749.15 10735.6 1783.3 10772.6 1807.02C10809.6 1829.79 10860.8 1848.29 10926.3 1862.52C11010.7 1879.6 11078.1 1898.58 11128.4 1919.45C11178.6 1939.37 11218 1968.31 11246.5 2006.26C11274.9 2044.21 11289.2 2094.97 11289.2 2158.54C11289.2 2351.14 11154.9 2447.44 10886.4 2447.44Z" fill="#7D5C3F"/>
<path d="M9991.39 2447.44C9925.93 2447.44 9870.43 2440.8 9824.89 2427.51C9780.29 2413.28 9741.87 2392.88 9709.61 2366.32C9677.35 2339.75 9644.62 2304.65 9611.41 2261L9725.27 2165.65C9764.17 2219.73 9803.06 2258.16 9841.96 2280.93C9881.81 2303.7 9931.15 2315.08 9989.97 2315.08C10069.7 2315.08 10129 2302.28 10167.9 2276.66C10206.8 2251.04 10226.2 2211.67 10226.2 2158.54C10226.2 2129.13 10217.7 2105.41 10200.6 2087.38C10184.5 2068.41 10155.5 2052.28 10113.8 2038.99C10073 2024.76 10011.8 2009.11 9930.2 1992.03C9837.22 1973.05 9767.96 1939.85 9722.42 1892.41C9676.88 1844.97 9654.11 1781.88 9654.11 1703.13C9654.11 1645.26 9668.81 1594.97 9698.23 1552.28C9727.64 1508.63 9769.38 1475.43 9823.46 1452.66C9877.54 1428.94 9941.11 1417.08 10014.2 1417.08C10103.3 1417.08 10175.9 1430.84 10231.9 1458.35C10288.8 1485.86 10333.9 1526.66 10367.1 1580.74L10256.1 1671.82C10219.1 1629.13 10182.6 1598.29 10146.5 1579.32C10111.4 1559.39 10066.8 1549.43 10012.7 1549.43C9952.02 1549.43 9905.06 1563.19 9871.85 1590.7C9838.64 1617.27 9822.04 1655.22 9822.04 1704.55C9822.04 1749.15 9840.54 1783.3 9877.54 1807.02C9914.54 1829.79 9965.78 1848.29 10031.2 1862.52C10115.7 1879.6 10183 1898.58 10233.3 1919.45C10283.6 1939.37 10323 1968.31 10351.5 2006.26C10379.9 2044.21 10394.1 2094.97 10394.1 2158.54C10394.1 2351.14 10259.9 2447.44 9991.39 2447.44Z" fill="#7D5C3F"/>
<path d="M9161.49 2430.36C9041 2430.36 8953.23 2404.74 8898.21 2353.51C8843.18 2301.33 8815.66 2224.95 8815.66 2124.38V1740.13C8815.66 1639.56 8843.18 1563.66 8898.21 1512.43C8953.23 1460.25 9041 1434.16 9161.49 1434.16H9497.35V1566.51H9161.49C9100.77 1566.51 9055.7 1580.74 9026.29 1609.2C8997.83 1636.72 8983.6 1680.36 8983.6 1740.13V1866.79H9431.89V1997.72H8983.6V2124.38C8983.6 2184.16 8997.83 2228.27 9026.29 2256.74C9055.7 2284.25 9100.77 2298.01 9161.49 2298.01H9503.04V2430.36H9161.49Z" fill="#7D5C3F"/>
<path d="M8628.47 1434.16V2224C8628.47 2292.31 8614.24 2344.02 8585.77 2379.13C8558.26 2413.28 8514.14 2430.36 8453.42 2430.36H8335.3L7983.78 1697.44V2430.36H7825.81V1434.16H8017.94L8423.53 2286.62H8430.65C8445.83 2286.62 8456.27 2280.45 8461.96 2268.12C8467.65 2254.84 8470.5 2232.07 8470.5 2199.81V1434.16H8628.47Z" fill="#7D5C3F"/>
<path d="M7217.18 2447.44C7087.2 2447.44 6987.58 2416.6 6918.32 2354.93C6849.06 2293.26 6814.43 2203.13 6814.43 2084.53V1779.98C6814.43 1661.39 6849.06 1571.25 6918.32 1509.58C6987.58 1447.91 7087.2 1417.08 7217.18 1417.08C7347.16 1417.08 7446.31 1447.91 7514.62 1509.58C7583.88 1571.25 7618.51 1661.39 7618.51 1779.98V2084.53C7618.51 2203.13 7583.88 2293.26 7514.62 2354.93C7446.31 2416.6 7347.16 2447.44 7217.18 2447.44ZM7217.18 2315.08C7292.13 2315.08 7349.53 2295.63 7389.38 2256.74C7430.18 2216.89 7450.58 2159.49 7450.58 2084.53V1779.98C7450.58 1705.03 7430.18 1648.1 7389.38 1609.2C7349.53 1569.35 7292.13 1549.43 7217.18 1549.43C7141.28 1549.43 7082.93 1569.35 7042.13 1609.2C7002.29 1648.1 6982.36 1705.03 6982.36 1779.98V2084.53C6982.36 2159.49 7002.29 2216.89 7042.13 2256.74C7082.93 2295.63 7141.28 2315.08 7217.18 2315.08Z" fill="#7D5C3F"/>
<path d="M5675.8 1434.16H5765.46C5810.05 1434.16 5846.1 1440.32 5873.61 1452.66C5901.13 1464.99 5925.32 1484.44 5946.19 1511.01C5967.07 1537.57 5990.31 1576.47 6015.93 1627.7L6141.17 1873.91L6266.4 1627.7C6292.02 1576.47 6315.26 1537.57 6336.14 1511.01C6357.01 1484.44 6381.2 1464.99 6408.72 1452.66C6436.23 1440.32 6472.29 1434.16 6516.88 1434.16H6606.54V2430.36H6452.84V1607.78C6440.5 1608.73 6429.59 1614.42 6420.1 1624.86C6411.56 1634.35 6401.13 1650.95 6388.79 1674.67L6141.17 2135.77L5893.54 1674.67C5880.26 1650 5869.34 1632.92 5860.81 1623.43C5852.27 1613 5841.83 1607.31 5829.5 1606.36V2430.36H5675.8V1434.16Z" fill="#7D5C3F"/>
<path d="M5256.08 1434.16H5424.01V2430.36H5256.08V1434.16Z" fill="#7D5C3F"/>
<path d="M4771.1 2430.36C4653.45 2430.36 4568.06 2404.74 4514.93 2353.51C4462.75 2301.33 4436.66 2224.95 4436.66 2124.38V1434.16H4604.59V2124.38C4604.59 2184.16 4617.87 2228.27 4644.44 2256.74C4671.95 2284.25 4714.17 2298.01 4771.1 2298.01H5089.88V2430.36H4771.1Z" fill="#7D5C3F"/>
<defs>
<linearGradient id="paint0_linear_508_6" x1="1840.5" y1="0" x2="1840.5" y2="3774" gradientUnits="userSpaceOnUse">
<stop stop-color="#4A2F17"/>
<stop offset="1" stop-color="#F1C198"/>
</linearGradient>
</defs>
</svg>
