<svg width="67" height="67" viewBox="0 0 67 67" fill="none" xmlns="http://www.w3.org/2000/svg">
<path d="M21.6357 45.3633L23.6689 53.1289L0 67L13.8711 43.3311L21.6357 45.3633Z" fill="#7D5C3F"/>
<path d="M67 67L43.3301 53.1299L45.3623 45.3633L53.127 43.3301L67 67Z" fill="#7D5C3F"/>
<path d="M42.0879 44.376L40.3477 51.6826L33.4961 48.2373L26.6504 51.6807L24.9102 44.377L33.5 36.5L42.0879 44.376Z" fill="#7D5C3F"/>
<path d="M30.5 33.5L22.623 42.0889L15.3184 40.3496L18.7627 33.5L15.3184 26.6504L22.623 24.9111L30.5 33.5Z" fill="#7D5C3F"/>
<path d="M51.6797 26.6504L48.2354 33.5L51.6797 40.3496L44.376 42.0879L36.5 33.5L44.377 24.9121L51.6797 26.6504Z" fill="#7D5C3F"/>
<path d="M42.0889 22.623L33.5 30.5L24.9102 22.623L26.6504 15.3184L33.5 18.7637V18.7617L40.3477 15.3174L42.0889 22.623Z" fill="#7D5C3F"/>
<path d="M53.127 23.6699L45.3623 21.6357L43.3301 13.8701L67 0L53.127 23.6699Z" fill="#7D5C3F"/>
<path d="M23.6689 13.8711L21.6357 21.6357L13.8711 23.6689L0 0L23.6689 13.8711Z" fill="#7D5C3F"/>
</svg>
