<svg width="111" height="111" viewBox="0 0 111 111" fill="none" xmlns="http://www.w3.org/2000/svg">
<path d="M61.5752 76.8867L55.501 111L49.4229 76.8877L55.499 73.8203L61.5752 76.8867Z" fill="#7D5C3F"/>
<path d="M43.6455 67.3545L45.6768 75.1123L22.0264 88.9727L35.8867 65.3232L43.6455 67.3545Z" fill="#7D5C3F"/>
<path d="M88.9736 88.9727L65.3213 75.1143L67.3535 67.3545L75.1113 65.3223L88.9736 88.9727Z" fill="#7D5C3F"/>
<path d="M64.0811 66.3672L62.3418 73.668L55.5 70.2295L55.499 70.2266L48.6553 73.667L46.917 66.3682L55.5 58.5L64.0811 66.3672Z" fill="#7D5C3F"/>
<path d="M52.5 55.5L44.6309 64.082L37.333 62.3438L40.7725 55.5L37.333 48.6562L44.6309 46.918L52.5 55.5Z" fill="#7D5C3F"/>
<path d="M73.666 48.6562L70.2256 55.5L73.666 62.3438L66.3662 64.0811L58.5 55.5L66.3672 46.9189L73.666 48.6562Z" fill="#7D5C3F"/>
<path d="M37.333 55.5L34.1113 61.5762L0 55.5L34.1113 49.4238L37.333 55.5Z" fill="#7D5C3F"/>
<path d="M111 55.5L76.8877 61.5762L73.8193 55.5L76.8877 49.4238L111 55.5Z" fill="#7D5C3F"/>
<path d="M64.082 44.6318L55.499 52.4941L46.917 44.6318L48.6553 37.333L55.4941 40.7705L62.3418 37.332L64.082 44.6318Z" fill="#7D5C3F"/>
<path d="M75.1113 45.6777L67.3535 43.6455L65.3213 35.8857L88.9736 22.0273L75.1113 45.6777Z" fill="#7D5C3F"/>
<path d="M45.6768 35.8877L43.6455 43.6455L35.8867 45.6768L22.0264 22.0273L45.6768 35.8877Z" fill="#7D5C3F"/>
<path d="M61.5752 34.1133L55.499 37.1797L49.4229 34.1123L55.501 0L61.5752 34.1133Z" fill="#7D5C3F"/>
</svg>
